<svg width="100" height="100" viewBox="0 0 100 100" fill="none" xmlns="http://www.w3.org/2000/svg">
<path d="M40.25 6.20652C46.2833 2.72318 53.7167 2.72318 59.75 6.20651L83.0513 19.6595C89.0846 23.1428 92.8013 29.5803 92.8013 36.547V63.453C92.8013 70.4197 89.0846 76.8571 83.0513 80.3405L59.75 93.7935C53.7167 97.2768 46.2833 97.2768 40.25 93.7935L16.9487 80.3405C10.9154 76.8571 7.19873 70.4197 7.19873 63.453V36.547C7.19873 29.5803 10.9154 23.1429 16.9487 19.6595L40.25 6.20652Z" fill="#0F1C23" stroke="#FFBE18"/>
<path d="M42.5535 50.1586C42.4015 50.1586 42.2473 50.1215 42.1044 50.0432L32.7774 44.9299C32.4778 44.7654 32.2914 44.4509 32.2914 44.109V38.0113C32.2914 37.4942 32.7104 37.0752 33.2275 37.0752C33.7446 37.0752 34.1636 37.4942 34.1636 38.0113V43.5548L43.0045 48.4015C43.4576 48.6501 43.6237 49.219 43.3753 49.6724C43.205 49.9827 42.8844 50.1586 42.5535 50.1586Z" fill="#FFBE18"/>
<path d="M46.7054 57.3832C46.5802 57.3832 46.4547 57.3582 46.3361 57.3073L35.5956 52.6944C35.2516 52.5466 35.0289 52.2085 35.0289 51.8342V45.6094C35.0289 45.0923 35.4479 44.6734 35.9649 44.6734C36.4819 44.6734 36.901 45.0924 36.901 45.6094V51.2174L45.7694 55.0263V40.793L32.0415 30.3267V36.0256L41.9498 42.0895C42.3908 42.3591 42.5294 42.9353 42.2595 43.3765C41.9894 43.8172 41.4133 43.9564 40.9724 43.6862L30.6167 37.3486C30.3388 37.1786 30.1694 36.8761 30.1694 36.5503V28.4361C30.1694 28.0802 30.3711 27.755 30.6901 27.5972C31.0091 27.4392 31.3897 27.476 31.673 27.6917L47.273 39.5852C47.5052 39.7622 47.6414 40.0377 47.6414 40.3296V56.4472C47.6414 56.7619 47.4833 57.0557 47.2203 57.2287C47.0652 57.3311 46.8857 57.3832 46.7054 57.3832Z" fill="#FFBE18"/>
<path d="M57.4465 50.1585C57.1156 50.1585 56.795 49.9826 56.6247 49.6722C56.3763 49.2188 56.5424 48.6499 56.9955 48.4013L65.8365 43.5546V38.0111C65.8365 37.494 66.2555 37.075 66.7725 37.075C67.2897 37.075 67.7086 37.494 67.7086 38.0111V44.1088C67.7086 44.4507 67.5221 44.7652 67.2227 44.9297L57.8957 50.043C57.7527 50.1214 57.5986 50.1585 57.4465 50.1585Z" fill="#FFBE18"/>
<path d="M53.2946 57.3833C53.1142 57.3833 52.9347 57.3312 52.7797 57.2288C52.5167 57.0557 52.3586 56.762 52.3586 56.4473V40.3297C52.3586 40.0377 52.4948 39.7623 52.727 39.5853L68.3268 27.6918C68.6103 27.476 68.9911 27.4392 69.3098 27.5973C69.6288 27.7551 69.8305 28.0803 69.8305 28.4362V36.5504C69.8305 36.8762 69.6611 37.1787 69.3832 37.3487L59.0276 43.6863C58.5869 43.9563 58.0104 43.8176 57.7405 43.3766C57.4705 42.9354 57.6092 42.3592 58.0501 42.0896L67.9584 36.0257V30.3268L54.2307 40.7931V55.0265L63.0991 51.2176V45.6096C63.0991 45.0925 63.5181 44.6736 64.0352 44.6736C64.5523 44.6736 64.9713 45.0926 64.9713 45.6096V51.8344C64.9713 52.2086 64.7485 52.5468 64.4046 52.6946L53.6641 57.3075C53.5457 57.3583 53.4198 57.3833 53.2946 57.3833Z" fill="#FFBE18"/>
<path d="M46.7054 61.8002C46.1883 61.8002 45.7694 61.3813 45.7694 60.8641V56.4472C45.7694 55.9301 46.1884 55.5112 46.7054 55.5112C47.2225 55.5112 47.6415 55.9302 47.6415 56.4472V60.8641C47.6414 61.3813 47.2224 61.8002 46.7054 61.8002Z" fill="#FFBE18"/>
<path d="M53.2946 61.8002C52.7775 61.8002 52.3585 61.3813 52.3585 60.8641V56.4472C52.3585 55.9301 52.7775 55.5112 53.2946 55.5112C53.8117 55.5112 54.2306 55.9302 54.2306 56.4472V60.8641C54.2307 61.3813 53.8117 61.8002 53.2946 61.8002Z" fill="#FFBE18"/>
<path d="M58.758 67.1504H41.242C40.7249 67.1504 40.3059 66.7314 40.3059 66.2143V63.695C40.3059 61.6181 41.9958 59.9282 44.0727 59.9282H55.9271C58.004 59.9282 59.6939 61.6181 59.6939 63.695V66.2143C59.694 66.7314 59.2751 67.1504 58.758 67.1504ZM42.1781 65.2783H57.8219V63.695C57.8219 62.6502 56.9721 61.8003 55.9273 61.8003H44.0728C43.0279 61.8003 42.1781 62.6502 42.1781 63.695V65.2783Z" fill="#FFBE18"/>
<path d="M64.5208 72.4999H35.4791C34.9621 72.4999 34.5431 72.0809 34.5431 71.5638V69.3343C34.5431 67.0977 36.3628 65.2781 38.5993 65.2781H61.4007C63.6372 65.2781 65.4569 67.0977 65.4569 69.3343V71.5638C65.4569 72.0809 65.0379 72.4999 64.5208 72.4999ZM36.4152 70.6278H63.5848V69.3343C63.5848 68.1301 62.6049 67.1502 61.4007 67.1502H38.5993C37.3951 67.1502 36.4152 68.1301 36.4152 69.3343V70.6278Z" fill="#FFBE18"/>
</svg>
