<svg width="70" height="70" viewBox="0 0 70 70" fill="none" xmlns="http://www.w3.org/2000/svg">
<g clip-path="url(#clip0_142_60)">
<path d="M60.5294 0H9.47065C8.14913 0 7.07397 1.07516 7.07397 2.39668V54.3363C7.07397 55.6578 8.14913 56.7329 9.47065 56.7329H19.0421C20.4385 64.2722 27.0625 70 35 70C43.9491 70 51.2298 62.7193 51.2298 53.7703C51.2298 44.8212 43.9491 37.5405 35 37.5405C29.2182 37.5405 23.8287 40.6544 20.9351 45.6671C20.6514 46.1583 20.8198 46.7865 21.311 47.0701C21.8023 47.3538 22.4305 47.1853 22.7141 46.6941C25.242 42.315 29.9498 39.5948 35 39.5948C42.8165 39.5948 49.1754 45.9539 49.1754 53.7703C49.1754 61.5866 42.8164 67.9457 35 67.9457C27.1837 67.9457 20.8246 61.5866 20.8246 53.7703C20.8246 52.7466 20.9341 51.7256 21.15 50.7355C21.2709 50.1812 20.9196 49.634 20.3652 49.5131C19.8117 49.3921 19.2637 49.7435 19.1428 50.2979C18.8956 51.4314 18.7703 52.5997 18.7703 53.7701C18.7703 54.075 18.7794 54.3777 18.7961 54.6785H9.47065C9.28185 54.6785 9.12831 54.5249 9.12831 54.3361V15.6126H45.7558C46.3232 15.6126 46.783 15.1527 46.783 14.5854C46.783 14.0182 46.3232 13.5583 45.7558 13.5583H9.12831V2.39668C9.12831 2.20787 9.28185 2.05434 9.47065 2.05434H60.5294C60.7182 2.05434 60.8717 2.20787 60.8717 2.39668V13.5583H50.719C50.1516 13.5583 49.6918 14.0182 49.6918 14.5854C49.6918 15.1527 50.1516 15.6126 50.719 15.6126H60.8717V54.3363C60.8717 54.5251 60.7182 54.6786 60.5294 54.6786H55.3887C54.8214 54.6786 54.3616 55.1385 54.3616 55.7058C54.3616 56.273 54.8214 56.7329 55.3887 56.7329H60.5294C61.8509 56.7329 62.926 55.6578 62.926 54.3363V2.39668C62.926 1.07516 61.8509 0 60.5294 0Z" fill="#45F882"/>
<path d="M14.6663 9.77075C15.7724 9.77075 16.6692 8.87401 16.6692 7.76782C16.6692 6.66163 15.7724 5.76489 14.6663 5.76489C13.5601 5.76489 12.6633 6.66163 12.6633 7.76782C12.6633 8.87401 13.5601 9.77075 14.6663 9.77075Z" fill="#45F882"/>
<path d="M20.7573 9.77075C21.8635 9.77075 22.7603 8.87401 22.7603 7.76782C22.7603 6.66163 21.8635 5.76489 20.7573 5.76489C19.6511 5.76489 18.7544 6.66163 18.7544 7.76782C18.7544 8.87401 19.6511 9.77075 20.7573 9.77075Z" fill="#45F882"/>
<path d="M26.8484 9.77075C27.9546 9.77075 28.8513 8.87401 28.8513 7.76782C28.8513 6.66163 27.9546 5.76489 26.8484 5.76489C25.7422 5.76489 24.8455 6.66163 24.8455 7.76782C24.8455 8.87401 25.7422 9.77075 26.8484 9.77075Z" fill="#45F882"/>
<path d="M31.7426 61.301C32.1541 61.301 32.5658 61.1927 32.941 60.976L41.4982 56.0354C42.2486 55.6021 42.6965 54.8263 42.6965 53.9597C42.6965 53.0932 42.2485 52.3173 41.4982 51.8842L32.941 46.9436C32.1906 46.5103 31.2946 46.5103 30.5443 46.9436C29.794 47.3767 29.3459 48.1527 29.3459 49.0191V58.9002C29.3123 60.1952 30.4633 61.3209 31.7426 61.301ZM31.4003 49.0193C31.4003 48.8473 31.5076 48.7596 31.5714 48.7227C31.6092 48.701 31.6697 48.6749 31.7436 48.6749C31.7948 48.6749 31.8527 48.6874 31.9138 48.7227L40.471 53.6633C40.62 53.7493 40.6422 53.8859 40.6422 53.9597C40.6422 54.0336 40.62 54.1703 40.471 54.2563L31.9138 59.1969C31.765 59.2829 31.6354 59.2338 31.5714 59.1969C31.5075 59.16 31.4003 59.0723 31.4003 58.9003V49.0193Z" fill="#45F882"/>
<path d="M16.8821 20.0491C16.3149 20.0491 15.855 20.509 15.855 21.0762V32.7556C15.855 33.2557 16.2152 33.6832 16.7082 33.7678C16.7807 33.7803 19.6616 33.79 20.9811 33.7827C21.5484 33.7796 22.0057 33.3171 22.0025 32.7498C21.9994 32.1826 21.5384 31.7316 20.9696 31.7284C19.8823 31.7346 18.7088 31.7383 17.9093 31.7383V21.0761C17.9093 20.509 17.4494 20.0491 16.8821 20.0491Z" fill="#45F882"/>
<path d="M26.719 21.0762V32.7656C26.719 33.3328 27.1789 33.7927 27.7462 33.7927C28.3134 33.7927 28.7733 33.3328 28.7733 32.7656V21.0762C28.7733 20.509 28.3134 20.0491 27.7462 20.0491C27.1788 20.0491 26.719 20.509 26.719 21.0762Z" fill="#45F882"/>
<path d="M53.1178 22.2103C53.6852 22.2103 54.145 21.7504 54.145 21.1832C54.145 20.6159 53.6852 20.156 53.1178 20.156H48.2374C47.67 20.156 47.2102 20.6159 47.2102 21.1832V32.7657C47.2102 33.333 47.67 33.7929 48.2374 33.7929H53.1178C53.6852 33.7929 54.145 33.333 54.145 32.7657C54.145 32.1985 53.6852 31.7385 53.1178 31.7385H49.2645V28.0015H52.7578C53.3252 28.0015 53.785 27.5416 53.785 26.9743C53.785 26.4071 53.3252 25.9471 52.7578 25.9471H49.2645V22.2102L53.1178 22.2103Z" fill="#45F882"/>
<path d="M41.5973 20.8273L38.4896 30.1816L35.2307 20.7928C35.0446 20.2569 34.4592 19.9735 33.9235 20.1593C33.3876 20.3454 33.104 20.9305 33.29 21.4665L37.289 32.9872C37.4718 33.5019 37.9599 33.8461 38.5054 33.8461H38.5143C39.0634 33.8424 39.551 33.4905 39.73 32.964L43.5467 21.4751C43.7257 20.9367 43.4342 20.3553 42.8958 20.1764C42.358 19.9975 41.7761 20.2889 41.5973 20.8273Z" fill="#45F882"/>
</g>
<defs>
<clipPath id="clip0_142_60">
<rect width="70" height="70" fill="white"/>
</clipPath>
</defs>
</svg>
