<svg width="70" height="70" viewBox="0 0 70 70" fill="none" xmlns="http://www.w3.org/2000/svg">
<path d="M35.0001 60.9234C34.7185 60.9234 34.4354 60.8612 34.1725 60.7367L1.22583 45.3118C0.952054 45.1827 0.777832 44.9089 0.777832 44.6072C0.777832 44.3054 0.952054 44.0316 1.22583 43.9025L31.6509 29.6583C32.0398 29.4763 32.5034 29.6443 32.6854 30.0332C32.8674 30.422 32.6994 30.8856 32.3105 31.0676L3.38961 44.6072L34.8352 59.3289C34.9394 59.3787 35.0607 59.3787 35.1618 59.3305L66.6105 44.6072L37.6896 31.0676C37.3007 30.8856 37.1327 30.422 37.3147 30.0332C37.4967 29.6443 37.9603 29.4763 38.3492 29.6583L68.7743 43.9025C69.048 44.03 69.2223 44.3054 69.2223 44.6072C69.2223 44.9089 69.048 45.1827 68.7743 45.3118L35.8245 60.7383C35.5632 60.8612 35.2816 60.9234 35.0001 60.9234Z" fill="#45F882"/>
<path d="M35.0001 66.2745C34.4541 66.2745 33.9081 66.1547 33.3994 65.9167L2.48272 51.4422C1.44672 50.9569 0.777832 49.9053 0.777832 48.762V44.6071C0.777832 44.1778 1.12628 43.8293 1.55561 43.8293C1.98494 43.8293 2.33339 44.1778 2.33339 44.6071V48.762C2.33339 49.3049 2.65072 49.8042 3.14228 50.0329L34.0589 64.5089C34.6563 64.7889 35.3423 64.7889 35.9396 64.5089L66.8578 50.0329C67.3494 49.8027 67.6667 49.3033 67.6667 48.762V44.6071C67.6667 44.1778 68.0152 43.8293 68.4445 43.8293C68.8738 43.8293 69.2223 44.1778 69.2223 44.6071V48.762C69.2223 49.9053 68.5534 50.9569 67.5174 51.4422L36.5992 65.9182C36.0921 66.1562 35.5461 66.2745 35.0001 66.2745Z" fill="#45F882"/>
<path d="M36.4824 44.2261H33.5191C32.242 44.2261 31.2029 43.187 31.2029 41.9098V20.2005C31.2029 19.7712 31.5513 19.4227 31.9807 19.4227C32.41 19.4227 32.7584 19.7712 32.7584 20.2005V41.9098C32.7584 42.3298 33.0991 42.6705 33.5191 42.6705H36.4824C36.9024 42.6705 37.2431 42.3298 37.2431 41.9098V20.2005C37.2431 19.7712 37.5915 19.4227 38.0209 19.4227C38.4502 19.4227 38.7987 19.7712 38.7987 20.2005V41.9098C38.7987 43.187 37.7595 44.2261 36.4824 44.2261Z" fill="#45F882"/>
<path d="M34.9999 21.5585C30.0844 21.5585 26.0835 17.5591 26.0835 12.642C26.0835 7.72647 30.0828 3.72559 34.9999 3.72559C39.9155 3.72559 43.9164 7.72492 43.9164 12.642C43.9164 17.5591 39.9155 21.5585 34.9999 21.5585ZM34.9999 5.2827C30.9415 5.2827 27.6391 8.58514 27.6391 12.6436C27.6391 16.702 30.9415 20.0045 34.9999 20.0045C39.0584 20.0045 42.3608 16.702 42.3608 12.6436C42.3608 8.58514 39.0584 5.2827 34.9999 5.2827Z" fill="#45F882"/>
<path d="M35 52.4735C27.1615 52.4735 21.0217 49.5071 21.0217 45.7193C21.0217 44.0626 22.2008 42.49 24.3413 41.2906C24.7162 41.0806 25.1906 41.2144 25.4006 41.5893C25.6106 41.9642 25.4768 42.4386 25.102 42.6486C23.4748 43.5602 22.5773 44.6506 22.5773 45.7193C22.5773 48.23 27.5691 50.918 35 50.918C42.4308 50.918 47.4226 48.23 47.4226 45.7193C47.4226 44.6538 46.5328 43.568 44.9151 42.658C44.6693 42.5273 44.4997 42.2691 44.4997 41.9704C44.4997 41.5411 44.8466 41.1926 45.276 41.1926C45.4097 41.1926 45.542 41.2269 45.6571 41.2922C47.7975 42.4915 48.9766 44.0642 48.9766 45.7209C48.9782 49.5071 42.8384 52.4735 35 52.4735Z" fill="#45F882"/>
<path d="M34.9999 48.3342C28.4463 48.3342 23.5059 46.1284 23.5059 43.204C23.5059 42.6175 23.7034 42.0482 24.0907 41.5131C25.2512 39.9171 28.1663 38.6991 31.8872 38.2558C32.3134 38.2044 32.7007 38.5093 32.7521 38.9355C32.8034 39.3618 32.4985 39.7491 32.0723 39.8004C28.871 40.1815 26.2327 41.2129 25.3507 42.4278C25.1594 42.6907 25.063 42.9535 25.063 43.2055C25.063 44.8933 29.3127 46.7802 35.0014 46.7802C40.6901 46.7802 44.9399 44.8933 44.9399 43.2055C44.9399 42.9629 44.8496 42.7124 44.6739 42.4589C44.6661 42.448 44.6583 42.4387 44.6505 42.4278C43.7701 41.2129 41.1319 40.1831 37.9305 39.802C37.5043 39.7507 37.1994 39.3649 37.2507 38.9371C37.3021 38.5093 37.6879 38.2044 38.1156 38.2573C41.807 38.6975 44.7034 39.8984 45.881 41.4742C45.8919 41.4867 45.9027 41.5007 45.9121 41.5147C46.301 42.0498 46.497 42.6191 46.497 43.2055C46.4939 46.1284 41.5534 48.3342 34.9999 48.3342Z" fill="#45F882"/>
<path d="M15.3673 47.7308C13.6111 47.7308 12.1831 46.3028 12.1831 44.5465C12.1831 42.7903 13.6111 41.3623 15.3673 41.3623C17.1236 41.3623 18.55 42.7903 18.55 44.5465C18.55 46.3028 17.122 47.7308 15.3673 47.7308ZM15.3673 42.9179C14.4698 42.9179 13.7387 43.649 13.7387 44.5465C13.7387 45.4441 14.4682 46.1752 15.3673 46.1752C16.2649 46.1752 16.9944 45.4441 16.9944 44.5465C16.9944 43.649 16.2649 42.9179 15.3673 42.9179Z" fill="#45F882"/>
<path d="M54.6327 47.7308C52.8765 47.7308 51.4485 46.3028 51.4485 44.5465C51.4485 42.7903 52.8765 41.3623 54.6327 41.3623C56.3889 41.3623 57.8169 42.7903 57.8169 44.5465C57.8169 46.3028 56.3889 47.7308 54.6327 47.7308ZM54.6327 42.9179C53.7352 42.9179 53.004 43.649 53.004 44.5465C53.004 45.4441 53.7352 46.1752 54.6327 46.1752C55.5303 46.1752 56.2614 45.4441 56.2614 44.5465C56.2614 43.649 55.5303 42.9179 54.6327 42.9179Z" fill="#45F882"/>
</svg>
