<svg width="100" height="100" viewBox="0 0 100 100" fill="none" xmlns="http://www.w3.org/2000/svg">
<path d="M40.25 6.20652C46.2833 2.72318 53.7167 2.72318 59.75 6.20651L83.0513 19.6595C89.0846 23.1428 92.8013 29.5803 92.8013 36.547V63.453C92.8013 70.4197 89.0846 76.8571 83.0513 80.3405L59.75 93.7935C53.7167 97.2768 46.2833 97.2768 40.25 93.7935L16.9487 80.3405C10.9154 76.8571 7.19873 70.4197 7.19873 63.453V36.547C7.19873 29.5803 10.9154 23.1429 16.9487 19.6595L40.25 6.20652Z" fill="#0F1C23" stroke="#6240CF"/>
<path d="M71.4891 46.7992C71.2977 41.3453 69.0891 36.2453 65.2109 32.3671C61.1461 28.3015 55.7437 26.0632 50 26.0632C38.3992 26.0632 28.9203 35.2968 28.5117 46.7992C26.7414 47.5859 25.5023 49.3578 25.5023 51.4171V57.0906C25.5023 59.8765 27.7687 62.1437 30.5555 62.1437C32.3586 62.1437 33.825 60.6773 33.825 58.8742V49.6328C33.825 47.9398 32.5266 46.5593 30.8758 46.3953C31.4852 36.3742 39.8273 28.407 50 28.407C55.1187 28.407 59.932 30.4023 63.5547 34.025C66.8812 37.3515 68.8281 41.6875 69.1211 46.396C67.4719 46.5617 66.1758 47.9414 66.1758 49.6328V58.8734C66.1758 60.5804 67.4945 61.9695 69.1648 62.114V64.4492C69.1648 67.0789 67.025 69.2179 64.3953 69.2179H60.8633C60.6898 68.7226 60.418 68.2648 60.0367 67.8851C59.3687 67.214 58.4781 66.8445 57.5297 66.8445H53.8891C53.3664 66.8445 52.8648 66.9554 52.4055 67.1695C51.1523 67.7453 50.343 69.0093 50.343 70.3898C50.343 71.3382 50.7125 72.2289 51.382 72.8953C52.0516 73.5664 52.9422 73.9359 53.8891 73.9359H57.5297C59.0391 73.9359 60.3695 72.9601 60.8656 71.5617H64.3953C68.318 71.5617 71.5086 68.371 71.5086 64.4492V61.6968C73.268 60.9054 74.4977 59.1398 74.4977 57.089V51.4156C74.4977 49.3578 73.2586 47.5859 71.4891 46.7992ZM31.4805 49.6328V58.8734C31.4805 59.3835 31.0656 59.7992 30.5547 59.7992C29.0609 59.7992 27.8453 58.5835 27.8453 57.0898V51.4164C27.8453 49.9218 29.0609 48.707 30.5547 48.707C31.0656 48.707 31.4805 49.1226 31.4805 49.6328ZM58.7055 70.6414C58.5891 71.1929 58.0937 71.5937 57.5289 71.5937H53.8883C53.568 71.5937 53.2672 71.4687 53.0375 71.239C52.8109 71.0132 52.6859 70.7117 52.6859 70.3914C52.6859 69.9234 52.9602 69.496 53.3898 69.2984C53.543 69.2265 53.7109 69.1898 53.8883 69.1898H57.5289C57.8492 69.1898 58.15 69.314 58.3789 69.5437C58.6055 69.7695 58.7305 70.071 58.7305 70.3914C58.7312 70.4773 58.7219 70.5632 58.7055 70.6414ZM72.1539 57.0898C72.1539 58.5835 70.9383 59.7992 69.4445 59.7992C68.9344 59.7992 68.5187 59.3843 68.5187 58.8734V49.6328C68.5187 49.1226 68.9336 48.707 69.4445 48.707C70.9383 48.707 72.1539 49.9226 72.1539 51.4164V57.0898Z" fill="#6240CF"/>
<path d="M57.5883 57.4938C60.3266 57.4938 62.5539 55.2657 62.5539 52.5282V42.4102C62.5539 41.0868 62.0367 39.8399 61.0977 38.9008C60.1586 37.9618 58.9125 37.4446 57.5883 37.4446H42.4117C39.6734 37.4446 37.4461 39.6719 37.4461 42.4102V52.5282C37.4461 55.2665 39.6734 57.4938 42.4117 57.4938H42.5047V60.1157C42.5047 61.1157 43.1008 62.0032 44.0227 62.3774C44.3203 62.4969 44.6297 62.5563 44.9359 62.5563C45.5742 62.5563 46.1961 62.3032 46.6516 61.8321L51.0133 57.4938H57.5883ZM49.7047 55.4907L44.9844 60.1852C44.9633 60.2071 44.9477 60.2235 44.9031 60.204C44.8492 60.1821 44.8492 60.1469 44.8492 60.1157V56.3219C44.8492 55.675 44.325 55.15 43.6773 55.15H42.4125C40.9664 55.15 39.7906 53.9735 39.7906 52.5282V42.4102C39.7906 40.9641 40.9664 39.7883 42.4125 39.7883H57.5891C58.2875 39.7883 58.9445 40.0618 59.4414 40.5579C59.9383 41.0547 60.2109 41.7125 60.2109 42.4102V52.5282C60.2109 53.9743 59.0344 55.15 57.5891 55.15H50.5312C50.2211 55.15 49.9242 55.2727 49.7047 55.4907Z" fill="#6240CF"/>
<path d="M44.307 45.9272C43.3539 45.9272 42.5781 46.7038 42.5781 47.6562C42.5781 48.6085 43.3547 49.3851 44.307 49.3851C45.2609 49.3851 46.0375 48.6085 46.0375 47.6562C46.0375 46.7038 45.2617 45.9272 44.307 45.9272Z" fill="#6240CF"/>
<path d="M49.9992 45.9272C49.0461 45.9272 48.2703 46.7038 48.2703 47.6562C48.2703 48.6085 49.0469 49.3851 49.9992 49.3851C50.9539 49.3851 51.7297 48.6085 51.7297 47.6562C51.7297 46.7038 50.9539 45.9272 49.9992 45.9272Z" fill="#6240CF"/>
<path d="M55.6914 45.9272C54.7383 45.9272 53.9625 46.7038 53.9625 47.6562C53.9625 48.6085 54.7391 49.3851 55.6914 49.3851C56.6453 49.3851 57.4219 48.6085 57.4219 47.6562C57.4219 46.7038 56.6453 45.9272 55.6914 45.9272Z" fill="#6240CF"/>
</svg>
