<svg width="100" height="100" viewBox="0 0 100 100" fill="none" xmlns="http://www.w3.org/2000/svg">
<path d="M40.25 6.20652C46.2833 2.72318 53.7167 2.72318 59.75 6.20651L83.0513 19.6595C89.0846 23.1428 92.8013 29.5803 92.8013 36.547V63.453C92.8013 70.4197 89.0846 76.8571 83.0513 80.3405L59.75 93.7935C53.7167 97.2768 46.2833 97.2768 40.25 93.7935L16.9487 80.3405C10.9154 76.8571 7.19873 70.4197 7.19873 63.453V36.547C7.19873 29.5803 10.9154 23.1429 16.9487 19.6595L40.25 6.20652Z" fill="#0F1C23" stroke="#45F882"/>
<g clip-path="url(#clip0_340_23)">
<path d="M31.0547 29.2969C30.707 29.2969 30.3672 29.4 30.0781 29.5931C29.789 29.7863 29.5637 30.0608 29.4307 30.382C29.2976 30.7032 29.2628 31.0566 29.3307 31.3976C29.3985 31.7386 29.5659 32.0518 29.8117 32.2976C30.0576 32.5435 30.3708 32.7109 30.7118 32.7787C31.0527 32.8465 31.4062 32.8117 31.7274 32.6787C32.0486 32.5456 32.3231 32.3203 32.5163 32.0313C32.7094 31.7422 32.8125 31.4023 32.8125 31.0547C32.812 30.5886 32.6266 30.1418 32.2971 29.8123C31.9675 29.4828 31.5207 29.2974 31.0547 29.2969ZM31.0547 31.6406C30.9388 31.6406 30.8255 31.6063 30.7292 31.5419C30.6328 31.4775 30.5577 31.386 30.5134 31.2789C30.469 31.1718 30.4574 31.054 30.48 30.9404C30.5026 30.8267 30.5584 30.7223 30.6404 30.6404C30.7223 30.5584 30.8267 30.5026 30.9404 30.48C31.054 30.4574 31.1719 30.469 31.2789 30.5134C31.386 30.5577 31.4775 30.6328 31.5419 30.7292C31.6063 30.8255 31.6406 30.9388 31.6406 31.0547C31.6406 31.2101 31.5789 31.3591 31.469 31.469C31.3591 31.5789 31.2101 31.6406 31.0547 31.6406Z" fill="#45F882"/>
<path d="M43.5547 29.2969C43.207 29.2969 42.8672 29.4 42.5781 29.5931C42.289 29.7863 42.0637 30.0608 41.9307 30.382C41.7976 30.7032 41.7628 31.0566 41.8307 31.3976C41.8985 31.7386 42.0659 32.0518 42.3117 32.2976C42.5576 32.5435 42.8708 32.7109 43.2118 32.7787C43.5527 32.8465 43.9062 32.8117 44.2274 32.6787C44.5486 32.5456 44.8231 32.3203 45.0163 32.0313C45.2094 31.7422 45.3125 31.4023 45.3125 31.0547C45.312 30.5886 45.1266 30.1418 44.7971 29.8123C44.4675 29.4828 44.0207 29.2974 43.5547 29.2969ZM43.5547 31.6406C43.4388 31.6406 43.3255 31.6063 43.2292 31.5419C43.1328 31.4775 43.0577 31.386 43.0134 31.2789C42.969 31.1718 42.9574 31.054 42.98 30.9404C43.0026 30.8267 43.0584 30.7223 43.1404 30.6404C43.2223 30.5584 43.3267 30.5026 43.4404 30.48C43.554 30.4574 43.6719 30.469 43.7789 30.5134C43.886 30.5577 43.9775 30.6328 44.0419 30.7292C44.1063 30.8255 44.1406 30.9388 44.1406 31.0547C44.1406 31.2101 44.0789 31.3591 43.969 31.469C43.8591 31.5789 43.7101 31.6406 43.5547 31.6406Z" fill="#45F882"/>
<path d="M37.3047 29.2969C36.957 29.2969 36.6172 29.4 36.3281 29.5931C36.039 29.7863 35.8137 30.0608 35.6807 30.382C35.5476 30.7032 35.5128 31.0566 35.5807 31.3976C35.6485 31.7386 35.8159 32.0518 36.0617 32.2976C36.3076 32.5435 36.6208 32.7109 36.9618 32.7787C37.3027 32.8465 37.6562 32.8117 37.9774 32.6787C38.2986 32.5456 38.5731 32.3203 38.7663 32.0313C38.9594 31.7422 39.0625 31.4023 39.0625 31.0547C39.062 30.5886 38.8766 30.1418 38.5471 29.8123C38.2175 29.4828 37.7707 29.2974 37.3047 29.2969ZM37.3047 31.6406C37.1888 31.6406 37.0755 31.6063 36.9792 31.5419C36.8828 31.4775 36.8077 31.386 36.7634 31.2789C36.719 31.1718 36.7074 31.054 36.73 30.9404C36.7526 30.8267 36.8084 30.7223 36.8904 30.6404C36.9723 30.5584 37.0767 30.5026 37.1904 30.48C37.304 30.4574 37.4219 30.469 37.5289 30.5134C37.636 30.5577 37.7275 30.6328 37.7919 30.7292C37.8563 30.8255 37.8906 30.9388 37.8906 31.0547C37.8906 31.2101 37.8289 31.3591 37.719 31.469C37.6091 31.5789 37.4601 31.6406 37.3047 31.6406Z" fill="#45F882"/>
<path d="M68.5547 29.2969H62.3047C61.8385 29.2969 61.3914 29.4821 61.0617 29.8117C60.7321 30.1414 60.5469 30.5885 60.5469 31.0547C60.5469 31.5209 60.7321 31.968 61.0617 32.2976C61.3914 32.6273 61.8385 32.8125 62.3047 32.8125H68.5547C69.0209 32.8125 69.468 32.6273 69.7977 32.2976C70.1273 31.968 70.3125 31.5209 70.3125 31.0547C70.3125 30.5885 70.1273 30.1414 69.7977 29.8117C69.468 29.4821 69.0209 29.2969 68.5547 29.2969ZM68.5547 31.6406H62.3047C62.1493 31.6406 62.0003 31.5789 61.8904 31.469C61.7805 31.3591 61.7188 31.2101 61.7188 31.0547C61.7188 30.8993 61.7805 30.7503 61.8904 30.6404C62.0003 30.5305 62.1493 30.4688 62.3047 30.4688H68.5547C68.7101 30.4688 68.8591 30.5305 68.969 30.6404C69.0789 30.7503 69.1406 30.8993 69.1406 31.0547C69.1406 31.2101 69.0789 31.3591 68.969 31.469C68.8591 31.5789 68.7101 31.6406 68.5547 31.6406Z" fill="#45F882"/>
<path d="M42.9773 47.5546C43.1231 47.7435 43.3049 47.9014 43.5121 48.0195C43.7194 48.1375 43.948 48.2131 44.1848 48.2421C44.4215 48.271 44.6617 48.2527 44.8913 48.1881C45.1209 48.1235 45.3354 48.014 45.5223 47.8659C45.7093 47.7177 45.8649 47.534 45.9803 47.3252C46.0957 47.1165 46.1684 46.8869 46.1944 46.6498C46.2203 46.4127 46.1989 46.1728 46.1314 45.944C46.0639 45.7153 45.9517 45.5022 45.8012 45.3171L43.9273 42.9687L45.8023 40.6195C46.0989 40.2473 46.2363 39.773 46.1845 39.3C46.1326 38.827 45.8959 38.3936 45.5258 38.0945C45.1505 37.799 44.6741 37.6626 44.1993 37.7147C43.7245 37.7668 43.2891 38.0032 42.9867 38.373L40.2164 41.846C39.9607 42.1644 39.8214 42.5606 39.8214 42.9689C39.8214 43.3772 39.9607 43.7734 40.2164 44.0918L42.9773 47.5546ZM41.1328 42.5781L43.9102 39.0957C44.0171 38.9712 44.1677 38.8924 44.3309 38.8757C44.4941 38.859 44.6576 38.9056 44.7875 39.0058C44.9177 39.1101 45.0013 39.2617 45.0199 39.4275C45.0385 39.5933 44.9906 39.7597 44.8867 39.8902L42.7215 42.6046C42.6387 42.7084 42.5936 42.8373 42.5936 42.9701C42.5936 43.1029 42.6387 43.2317 42.7215 43.3355L44.8867 46.0496C44.9384 46.1151 44.9767 46.1902 44.9993 46.2705C45.0218 46.3509 45.0283 46.4349 45.0183 46.5178C45.0084 46.6007 44.9821 46.6807 44.9411 46.7534C44.9001 46.8261 44.8451 46.89 44.7793 46.9414C44.6475 47.0394 44.4831 47.0831 44.32 47.0633C44.1569 47.0436 44.0076 46.9619 43.9031 46.8351L41.1328 43.3593C41.0441 43.2485 40.9957 43.1107 40.9957 42.9687C40.9957 42.8267 41.0441 42.6889 41.1328 42.5781Z" fill="#45F882"/>
<path d="M54.4648 47.8402C54.8393 48.137 55.3154 48.2746 55.7904 48.2235C56.2654 48.1723 56.7012 47.9365 57.0039 47.5668L59.7824 44.0942C60.0395 43.7756 60.1797 43.3787 60.1797 42.9693C60.1797 42.56 60.0395 42.1631 59.7824 41.8445L57.0125 38.382C56.8665 38.1936 56.6846 38.0361 56.4773 37.9185C56.2699 37.8009 56.0413 37.7257 55.8047 37.6971C55.5681 37.6685 55.3281 37.6872 55.0987 37.752C54.8694 37.8168 54.6552 37.9266 54.4685 38.0748C54.2819 38.223 54.1265 38.4068 54.0114 38.6156C53.8963 38.8243 53.8238 39.0538 53.7981 39.2907C53.7723 39.5277 53.7939 39.7674 53.8615 39.996C53.9291 40.2245 54.0413 40.4374 54.1918 40.6223L56.0699 42.9688L54.1922 45.3152C53.8978 45.688 53.7615 46.1613 53.8125 46.6335C53.8635 47.1056 54.0977 47.539 54.4648 47.8402ZM55.107 46.0473L57.2777 43.3344C57.3608 43.2305 57.4061 43.1014 57.4061 42.9684C57.4061 42.8353 57.3608 42.7062 57.2777 42.6024L55.0996 39.8793C54.9965 39.7479 54.9498 39.581 54.9697 39.4152C54.9897 39.2494 55.0747 39.0983 55.2061 38.9951C55.3374 38.892 55.5044 38.8453 55.6702 38.8652C55.836 38.8852 55.9871 38.9702 56.0902 39.1016L58.8672 42.5754C58.9571 42.6866 59.0062 42.8253 59.0062 42.9684C59.0062 43.1114 58.9571 43.2501 58.8672 43.3613L56.0813 46.843C55.9757 46.9725 55.8231 47.0548 55.6569 47.0717C55.4907 47.0887 55.3246 47.0389 55.1951 46.9334C55.0656 46.8279 54.9833 46.6753 54.9664 46.5091C54.9494 46.3429 54.9992 46.1768 55.1047 46.0473H55.107Z" fill="#45F882"/>
<path d="M49.168 48.2422C49.5818 48.2474 49.9852 48.1117 50.3117 47.8574C50.6383 47.603 50.8686 47.2452 50.9648 46.8426L52.5582 39.8828C52.6631 39.4166 52.5785 38.9278 52.323 38.524C52.0675 38.1202 51.6621 37.8344 51.1959 37.7295C50.7297 37.6246 50.2409 37.7092 49.8371 37.9647C49.4333 38.2202 49.1475 38.6256 49.0426 39.0918L47.4566 46.0227C47.4006 46.2835 47.4021 46.5534 47.461 46.8135C47.5199 47.0737 47.6348 47.3179 47.7977 47.5292C47.9606 47.7405 48.1676 47.9137 48.4042 48.0368C48.6408 48.1599 48.9015 48.23 49.168 48.2422ZM48.5937 46.2996L50.184 39.3629C50.2202 39.2001 50.3197 39.0584 50.4605 38.9689C50.6012 38.8794 50.7718 38.8495 50.9346 38.8857C51.0974 38.922 51.2391 39.0215 51.3286 39.1622C51.4181 39.303 51.448 39.4735 51.4117 39.6363L49.8215 46.5813C49.7889 46.7224 49.7087 46.8481 49.5944 46.9372C49.4801 47.0262 49.3386 47.0732 49.1937 47.0703C49.101 47.0661 49.0103 47.0417 48.9279 46.9991C48.8455 46.9564 48.7733 46.8964 48.7162 46.8232C48.6592 46.7499 48.6188 46.6652 48.5976 46.5748C48.5765 46.4844 48.5751 46.3905 48.5937 46.2996Z" fill="#45F882"/>
<path d="M69.7266 25H30.2734C28.8753 25.0016 27.5349 25.5576 26.5463 26.5463C25.5576 27.5349 25.0016 28.8753 25 30.2734V64.2578C25.0042 64.9872 25.1584 65.7079 25.453 66.3752C25.7476 67.0425 26.1763 67.642 26.7124 68.1366C27.2485 68.6312 27.8806 69.0102 28.5694 69.2501C29.2582 69.49 29.989 69.5857 30.7164 69.5312C31.4196 70.8038 32.3862 71.9117 33.5517 72.7809C34.7173 73.6502 36.0548 74.2607 37.4751 74.5717C38.8954 74.8828 40.3657 74.8872 41.7878 74.5847C43.2099 74.2822 44.5511 73.6798 45.7219 72.8176C46.9478 71.8731 48.4517 71.361 49.9992 71.361C51.5467 71.361 53.0507 71.8731 54.2766 72.8176C55.4473 73.68 56.7886 74.2827 58.2109 74.5853C59.6331 74.888 61.1036 74.8836 62.5241 74.5726C63.9445 74.2615 65.2822 73.6509 66.4478 72.7815C67.6134 71.9122 68.5801 70.8041 69.2832 69.5312C70.0106 69.5858 70.7414 69.4901 71.4303 69.2503C72.1192 69.0104 72.7513 68.6313 73.2875 68.1368C73.8236 67.6422 74.2524 67.0426 74.547 66.3753C74.8416 65.708 74.9958 64.9872 75 64.2578V30.2734C74.9984 28.8753 74.4424 27.5349 73.4537 26.5463C72.4651 25.5576 71.1247 25.0016 69.7266 25ZM69.3133 65.7664C69.1079 67.3266 68.4993 68.8063 67.5476 70.0596C66.5959 71.3128 65.3339 72.2963 63.8861 72.913C62.4384 73.5297 60.8548 73.7583 59.2917 73.5763C57.7286 73.3943 56.24 72.8079 54.9727 71.875C53.5454 70.7819 51.7976 70.1895 49.9998 70.1895C48.202 70.1895 46.4543 70.7819 45.027 71.875C43.7597 72.8079 42.2711 73.3942 40.7081 73.5763C39.145 73.7584 37.5615 73.5298 36.1138 72.9132C34.666 72.2966 33.404 71.3132 32.4522 70.0601C31.5005 68.8069 30.8918 67.3273 30.6863 65.7672C30.5157 64.4538 30.6254 63.1192 31.0083 61.8513C31.3911 60.5834 32.0384 59.4111 32.9074 58.4117C33.6563 57.5275 34.5865 56.8146 35.635 56.3213C36.6835 55.8279 37.8257 55.5657 38.9844 55.5523C44.4406 55.518 55.5609 55.518 61.0187 55.5523C62.177 55.5658 63.3188 55.828 64.3669 56.3211C65.415 56.8143 66.345 57.5268 67.0938 58.4105C67.9625 59.4102 68.6094 60.5826 68.992 61.8506C69.3746 63.1185 69.4841 64.4531 69.3133 65.7664ZM47.8516 54.3551V53.3203C47.8516 53.1649 47.9133 53.0159 48.0232 52.906C48.1331 52.7961 48.2821 52.7344 48.4375 52.7344H51.5625C51.7179 52.7344 51.8669 52.7961 51.9768 52.906C52.0867 53.0159 52.1484 53.1649 52.1484 53.3203V54.3551C50.7254 54.3539 49.2746 54.3539 47.8516 54.3551ZM73.8281 64.2578C73.827 65.3241 73.4106 66.348 72.6673 67.1125C71.9241 67.877 70.9123 68.3219 69.8465 68.3531C70.1578 67.5699 70.3694 66.7505 70.4762 65.9145C70.6675 64.4366 70.5434 62.9349 70.1122 61.5084C69.6809 60.0819 68.9523 58.7631 67.9742 57.6387C67.117 56.6294 66.0528 55.8162 64.8539 55.254C63.6549 54.6919 62.3491 54.394 61.025 54.3805C58.9961 54.368 56.2543 54.3598 53.3203 54.3563V53.3203C53.3198 52.8543 53.1344 52.4075 52.8049 52.0779C52.4753 51.7484 52.0285 51.563 51.5625 51.5625H50.5859V50C50.5859 49.8446 50.5242 49.6956 50.4143 49.5857C50.3044 49.4758 50.1554 49.4141 50 49.4141C49.8446 49.4141 49.6956 49.4758 49.5857 49.5857C49.4758 49.6956 49.4141 49.8446 49.4141 50V51.5625H48.4375C47.9715 51.563 47.5247 51.7484 47.1951 52.0779C46.8656 52.4075 46.6802 52.8543 46.6797 53.3203V54.3563C43.7457 54.3598 41.0039 54.368 38.975 54.3805C37.6508 54.394 36.3449 54.6919 35.1459 55.2541C33.9469 55.8163 32.8827 56.6297 32.0254 57.6391C31.0478 58.7636 30.3195 60.0825 29.8886 61.5089C29.4577 62.9352 29.3339 64.4368 29.5254 65.9145C29.6324 66.7505 29.8439 67.5698 30.1551 68.3531C29.089 68.3223 28.0768 67.8775 27.3332 67.113C26.5896 66.3485 26.1731 65.3243 26.1719 64.2578V36.7188H73.8281V64.2578ZM73.8281 35.5469H26.1719V30.2734C26.1731 29.186 26.6056 28.1435 27.3746 27.3746C28.1435 26.6056 29.186 26.1731 30.2734 26.1719H69.7266C70.814 26.1731 71.8565 26.6056 72.6254 27.3746C73.3944 28.1435 73.8269 29.186 73.8281 30.2734V35.5469Z" fill="#45F882"/>
<path d="M43.1641 62.1094H41.7969V60.7422C41.7964 60.2761 41.611 59.8293 41.2815 59.4998C40.9519 59.1703 40.5051 58.9849 40.0391 58.9844H38.8672C38.4011 58.9849 37.9543 59.1703 37.6248 59.4998C37.2953 59.8293 37.1099 60.2761 37.1094 60.7422V62.1094H35.7422C35.2761 62.1099 34.8293 62.2953 34.4998 62.6248C34.1703 62.9543 33.9849 63.4011 33.9844 63.8672V65.0391C33.9849 65.5051 34.1703 65.9519 34.4998 66.2815C34.8293 66.611 35.2761 66.7964 35.7422 66.7969H37.1094V68.1641C37.1099 68.6301 37.2953 69.0769 37.6248 69.4065C37.9543 69.736 38.4011 69.9214 38.8672 69.9219H40.0391C40.5051 69.9214 40.9519 69.736 41.2815 69.4065C41.611 69.0769 41.7964 68.6301 41.7969 68.1641V66.7969H43.1641C43.6301 66.7964 44.0769 66.611 44.4065 66.2815C44.736 65.9519 44.9214 65.5051 44.9219 65.0391V63.8672C44.9214 63.4011 44.736 62.9543 44.4065 62.6248C44.0769 62.2953 43.6301 62.1099 43.1641 62.1094ZM43.75 65.0391C43.75 65.1945 43.6883 65.3435 43.5784 65.4534C43.4685 65.5633 43.3195 65.625 43.1641 65.625H41.2109C41.0555 65.625 40.9065 65.6867 40.7966 65.7966C40.6867 65.9065 40.625 66.0555 40.625 66.2109V68.1641C40.625 68.3195 40.5633 68.4685 40.4534 68.5784C40.3435 68.6883 40.1945 68.75 40.0391 68.75H38.8672C38.7118 68.75 38.5628 68.6883 38.4529 68.5784C38.343 68.4685 38.2812 68.3195 38.2812 68.1641V66.2109C38.2812 66.0555 38.2195 65.9065 38.1096 65.7966C37.9997 65.6867 37.8507 65.625 37.6953 65.625H35.7422C35.5868 65.625 35.4378 65.5633 35.3279 65.4534C35.218 65.3435 35.1562 65.1945 35.1562 65.0391V63.8672C35.1562 63.7118 35.218 63.5628 35.3279 63.4529C35.4378 63.343 35.5868 63.2812 35.7422 63.2812H37.6953C37.8507 63.2812 37.9997 63.2195 38.1096 63.1096C38.2195 62.9997 38.2812 62.8507 38.2812 62.6953V60.7422C38.2812 60.5868 38.343 60.4378 38.4529 60.3279C38.5628 60.218 38.7118 60.1562 38.8672 60.1562H40.0391C40.1945 60.1562 40.3435 60.218 40.4534 60.3279C40.5633 60.4378 40.625 60.5868 40.625 60.7422V62.6953C40.625 62.8507 40.6867 62.9997 40.7966 63.1096C40.9065 63.2195 41.0555 63.2812 41.2109 63.2812H43.1641C43.3195 63.2812 43.4685 63.343 43.5784 63.4529C43.6883 63.5628 43.75 63.7118 43.75 63.8672V65.0391Z" fill="#45F882"/>
<path d="M56.6406 62.5C56.2157 62.5 55.8003 62.626 55.447 62.8621C55.0937 63.0982 54.8183 63.4337 54.6557 63.8263C54.4931 64.2188 54.4506 64.6508 54.5335 65.0676C54.6164 65.4843 54.821 65.8671 55.1215 66.1676C55.4219 66.4681 55.8047 66.6727 56.2215 66.7556C56.6382 66.8385 57.0702 66.7959 57.4628 66.6333C57.8554 66.4707 58.1909 66.1954 58.427 65.842C58.6631 65.4887 58.7891 65.0734 58.7891 64.6484C58.7884 64.0788 58.5619 63.5327 58.1591 63.1299C57.7563 62.7272 57.2102 62.5006 56.6406 62.5ZM56.6406 65.625C56.4475 65.625 56.2587 65.5677 56.0981 65.4604C55.9375 65.3531 55.8123 65.2006 55.7384 65.0222C55.6645 64.8437 55.6451 64.6474 55.6828 64.4579C55.7205 64.2685 55.8135 64.0945 55.9501 63.9579C56.0867 63.8213 56.2607 63.7283 56.4501 63.6906C56.6395 63.653 56.8359 63.6723 57.0143 63.7462C57.1928 63.8201 57.3453 63.9453 57.4526 64.1059C57.5599 64.2665 57.6172 64.4553 57.6172 64.6484C57.6172 64.9074 57.5143 65.1558 57.3312 65.339C57.148 65.5221 56.8996 65.625 56.6406 65.625Z" fill="#45F882"/>
<path d="M64.4531 62.5C64.0282 62.5 63.6128 62.626 63.2595 62.8621C62.9062 63.0982 62.6308 63.4337 62.4682 63.8263C62.3056 64.2188 62.2631 64.6508 62.346 65.0676C62.4289 65.4843 62.6335 65.8671 62.934 66.1676C63.2344 66.4681 63.6172 66.6727 64.034 66.7556C64.4507 66.8385 64.8827 66.7959 65.2753 66.6333C65.6679 66.4707 66.0034 66.1954 66.2395 65.842C66.4756 65.4887 66.6016 65.0734 66.6016 64.6484C66.6009 64.0788 66.3744 63.5327 65.9716 63.1299C65.5688 62.7272 65.0227 62.5006 64.4531 62.5ZM64.4531 65.625C64.26 65.625 64.0712 65.5677 63.9106 65.4604C63.75 65.3531 63.6248 65.2006 63.5509 65.0222C63.477 64.8437 63.4576 64.6474 63.4953 64.4579C63.533 64.2685 63.626 64.0945 63.7626 63.9579C63.8992 63.8213 64.0732 63.7283 64.2626 63.6906C64.452 63.653 64.6484 63.6723 64.8268 63.7462C65.0053 63.8201 65.1578 63.9453 65.2651 64.1059C65.3724 64.2665 65.4297 64.4553 65.4297 64.6484C65.4297 64.9074 65.3268 65.1558 65.1437 65.339C64.9605 65.5221 64.7121 65.625 64.4531 65.625Z" fill="#45F882"/>
<path d="M60.5469 62.6953C60.9718 62.6953 61.3872 62.5693 61.7405 62.3332C62.0938 62.0972 62.3692 61.7616 62.5318 61.369C62.6944 60.9765 62.7369 60.5445 62.654 60.1277C62.5711 59.711 62.3665 59.3282 62.066 59.0277C61.7656 58.7272 61.3828 58.5226 60.966 58.4397C60.5493 58.3568 60.1173 58.3994 59.7247 58.562C59.3321 58.7246 58.9966 59 58.7605 59.3533C58.5244 59.7066 58.3984 60.122 58.3984 60.5469C58.3991 61.1165 58.6256 61.6626 59.0284 62.0654C59.4312 62.4681 59.9773 62.6947 60.5469 62.6953ZM60.5469 59.5703C60.74 59.5703 60.9288 59.6276 61.0894 59.7349C61.25 59.8422 61.3752 59.9947 61.4491 60.1732C61.523 60.3516 61.5424 60.548 61.5047 60.7374C61.467 60.9268 61.374 61.1008 61.2374 61.2374C61.1008 61.374 60.9268 61.467 60.7374 61.5047C60.548 61.5424 60.3516 61.523 60.1732 61.4491C59.9947 61.3752 59.8422 61.25 59.7349 61.0894C59.6276 60.9288 59.5703 60.74 59.5703 60.5469C59.5703 60.2879 59.6732 60.0395 59.8563 59.8563C60.0395 59.6732 60.2879 59.5703 60.5469 59.5703Z" fill="#45F882"/>
<path d="M60.5469 66.6016C60.122 66.6016 59.7066 66.7276 59.3533 66.9636C59 67.1997 58.7246 67.5353 58.562 67.9278C58.3994 68.3204 58.3568 68.7524 58.4397 69.1691C58.5226 69.5859 58.7272 69.9687 59.0277 70.2692C59.3282 70.5696 59.711 70.7743 60.1277 70.8572C60.5445 70.9401 60.9765 70.8975 61.369 70.7349C61.7616 70.5723 62.0972 70.2969 62.3332 69.9436C62.5693 69.5903 62.6953 69.1749 62.6953 68.75C62.6947 68.1804 62.4681 67.6343 62.0654 67.2315C61.6626 66.8287 61.1165 66.6022 60.5469 66.6016ZM60.5469 69.7266C60.3537 69.7266 60.1649 69.6693 60.0043 69.562C59.8437 69.4547 59.7186 69.3022 59.6446 69.1237C59.5707 68.9453 59.5514 68.7489 59.5891 68.5595C59.6268 68.37 59.7198 68.196 59.8563 68.0595C59.9929 67.9229 60.1669 67.8299 60.3564 67.7922C60.5458 67.7545 60.7421 67.7739 60.9206 67.8478C61.099 67.9217 61.2516 68.0469 61.3589 68.2075C61.4662 68.368 61.5234 68.5569 61.5234 68.75C61.5234 69.009 61.4206 69.2574 61.2374 69.4405C61.0543 69.6237 60.8059 69.7266 60.5469 69.7266Z" fill="#45F882"/>
</g>
<defs>
<clipPath id="clip0_340_23">
<rect width="50" height="50" fill="white" transform="translate(25 25)"/>
</clipPath>
</defs>
</svg>
