<svg width="70" height="70" viewBox="0 0 70 70" fill="none" xmlns="http://www.w3.org/2000/svg">
<g clip-path="url(#clip0_142_114)">
<path d="M26.8344 47.831H22.1684V43.165C22.1684 42.5208 21.6461 41.9985 21.0019 41.9985H16.3359C15.6917 41.9985 15.1694 42.5208 15.1694 43.165V47.831H10.5034C9.85921 47.831 9.33691 48.3533 9.33691 48.9975V53.6635C9.33691 54.3077 9.85921 54.83 10.5034 54.83H15.1694V59.496C15.1694 60.1402 15.6917 60.6625 16.3359 60.6625H21.0019C21.6461 60.6625 22.1684 60.1402 22.1684 59.496V54.83H26.8344C27.4786 54.83 28.0009 54.3077 28.0009 53.6635V48.9975C28.0009 48.3533 27.4786 47.831 26.8344 47.831ZM25.6679 52.497H21.0019C20.3577 52.497 19.8354 53.0193 19.8354 53.6635V58.3295H17.5024V53.6635C17.5024 53.0193 16.9801 52.497 16.3359 52.497H11.6699V50.164H16.3359C16.9801 50.164 17.5024 49.6417 17.5024 48.9975V44.3315H19.8354V48.9975C19.8354 49.6417 20.3577 50.164 21.0019 50.164H25.6679V52.497Z" fill="#45F882"/>
<path d="M69.8781 49.1993C68.9834 41.161 61.4338 33.6406 53.3885 32.7832C52.7052 32.7078 52.0183 32.6689 51.3308 32.6665H38.4993V28.0006H36.1663V25.6676C36.1663 23.0906 34.0773 21.0016 31.5003 21.0016H25.6678C24.3793 21.0016 23.3348 19.9571 23.3348 18.6686C23.3348 17.38 24.3793 16.3356 25.6678 16.3356H44.3318C46.9087 16.3356 48.9978 14.2465 48.9978 11.6696C48.9978 9.09267 46.9087 7.00362 44.3318 7.00362H38.4993C37.2108 7.00362 36.1663 5.95917 36.1663 4.67062V0.00463867H33.8333V4.67062C33.8333 7.24756 35.9224 9.33661 38.4993 9.33661H44.3318C45.6203 9.33661 46.6648 10.3811 46.6648 11.6696C46.6648 12.9581 45.6203 14.0026 44.3318 14.0026H25.6678C23.0909 14.0026 21.0019 16.0916 21.0019 18.6686C21.0019 21.2455 23.0909 23.3346 25.6678 23.3346H31.5003C32.7889 23.3346 33.8333 24.379 33.8333 25.6676V28.0006H31.5003V32.6665H18.6689C17.9806 32.6681 17.2928 32.7071 16.6088 32.7832C8.56 33.6464 1.0151 41.1668 0.122734 49.2051C-1.04916 59.4461 6.30269 68.6982 16.5438 69.87C20.714 70.3473 24.9233 69.4048 28.4919 67.195C30.0283 66.1892 31.7845 65.5686 33.6117 65.3857C34.5143 65.3144 35.4208 65.3112 36.3238 65.3764C38.1798 65.5559 39.9643 66.1836 41.524 67.2055C50.2924 72.6244 61.7937 69.9093 67.2126 61.1407C69.4176 57.5728 70.3566 53.3662 69.8781 49.1993ZM33.8333 30.3335H36.1663V32.6665H33.8333V30.3335ZM63.5032 62.2186C58.2293 68.1175 49.4836 69.3835 42.7535 65.2223C40.8741 63.9985 38.7241 63.2525 36.4906 63.0491C35.9983 63.0134 35.5014 62.9954 34.9998 62.9954C34.4691 62.9954 33.95 63.0176 33.4274 63.0584C31.2278 63.2691 29.1118 64.0078 27.2589 65.2118C19.5889 69.9572 9.52426 67.5866 4.77866 59.9166C2.8468 56.7942 2.02354 53.1119 2.44173 49.4641C3.20928 42.5561 9.94464 35.8464 16.8596 35.1034C17.4604 35.0361 18.0643 35.0016 18.6689 34.9995H51.3308C51.9352 35 52.5391 35.0322 53.14 35.0964C60.0538 35.8394 66.788 42.5491 67.5579 49.4571C68.1079 54.0964 66.6301 58.7475 63.5032 62.2186Z" fill="#45F882"/>
<path d="M51.3308 39.6655C48.7538 39.6655 46.6648 41.7546 46.6648 44.3315C46.6648 46.9085 48.7538 48.9975 51.3308 48.9975C53.9077 48.9975 55.9968 46.9085 55.9968 44.3315C55.9968 41.7546 53.9077 39.6655 51.3308 39.6655ZM51.3308 46.6645C50.0422 46.6645 48.9978 45.6201 48.9978 44.3315C48.9978 43.043 50.0422 41.9985 51.3308 41.9985C52.6193 41.9985 53.6638 43.043 53.6638 44.3315C53.6638 45.6201 52.6192 46.6645 51.3308 46.6645Z" fill="#45F882"/>
<path d="M51.3308 53.6635C48.7538 53.6635 46.6648 55.7525 46.6648 58.3294C46.6648 60.9064 48.7538 62.9954 51.3308 62.9954C53.9077 62.9954 55.9968 60.9064 55.9968 58.3294C55.9968 55.7525 53.9077 53.6635 51.3308 53.6635ZM51.3308 60.6624C50.0422 60.6624 48.9978 59.618 48.9978 58.3294C48.9978 57.0409 50.0422 55.9964 51.3308 55.9964C52.6193 55.9964 53.6638 57.0409 53.6638 58.3294C53.6638 59.618 52.6192 60.6624 51.3308 60.6624Z" fill="#45F882"/>
<path d="M43.1653 46.6646C40.5883 46.6646 38.4993 48.7536 38.4993 51.3305C38.4993 53.9075 40.5883 55.9965 43.1653 55.9965C45.7422 55.9965 47.8312 53.9075 47.8312 51.3305C47.8312 48.7536 45.7422 46.6646 43.1653 46.6646ZM43.1653 53.6635C41.8767 53.6635 40.8323 52.6191 40.8323 51.3305C40.8323 50.042 41.8767 48.9975 43.1653 48.9975C44.4538 48.9975 45.4982 50.042 45.4982 51.3305C45.4982 52.6191 44.4536 53.6635 43.1653 53.6635Z" fill="#45F882"/>
<path d="M59.4963 46.6646C56.9194 46.6646 54.8303 48.7536 54.8303 51.3305C54.8303 53.9075 56.9194 55.9965 59.4963 55.9965C62.0732 55.9965 64.1623 53.9075 64.1623 51.3305C64.1623 48.7536 62.0732 46.6646 59.4963 46.6646ZM59.4963 53.6635C58.2078 53.6635 57.1633 52.6191 57.1633 51.3305C57.1633 50.042 58.2078 48.9975 59.4963 48.9975C60.7848 48.9975 61.8293 50.042 61.8293 51.3305C61.8293 52.6191 60.7847 53.6635 59.4963 53.6635Z" fill="#45F882"/>
</g>
<defs>
<clipPath id="clip0_142_114">
<rect width="70" height="70" fill="white"/>
</clipPath>
</defs>
</svg>
