<svg width="60" height="60" viewBox="0 0 60 60" fill="none" xmlns="http://www.w3.org/2000/svg">
<g clip-path="url(#clip0_199_3175)">
<path d="M59.4532 58.1568L51.2255 35.2342C51.1079 34.9052 50.8655 34.6358 50.5508 34.4842L41.8032 30.2442C42.4552 29.2527 43.0637 28.2427 43.6139 27.2155C45.2967 24.0741 46.2857 21.0239 46.5532 18.1499C46.8739 14.8279 46.1969 11.4856 44.6088 8.55023L44.6038 8.54098C41.7918 3.36539 36.2113 0.0928125 30.0382 0H30.0188H29.9994C23.827 0.0925781 18.2455 3.36516 15.4289 8.55C13.8407 11.4854 13.1637 14.8276 13.4844 18.1496C13.7519 21.0237 14.7409 24.0738 16.4237 27.2153C16.9745 28.2424 17.5824 29.2525 18.2345 30.244L9.48816 34.4835C9.17295 34.6348 8.93006 34.9043 8.81211 35.2335L0.548165 58.1546C0.218634 58.9919 0.913556 59.9729 1.80688 59.9447C2.04283 59.9449 2.27462 59.8825 2.47859 59.7639L15.5628 52.1445L29.3702 59.8359C29.5716 59.9487 29.7997 60.0051 30.0304 59.9992C30.2612 59.9934 30.4861 59.9255 30.6815 59.8028C30.6852 59.8033 30.689 59.8026 30.6923 59.8008L44.4794 52.1441L57.5204 59.7625C57.7248 59.8817 57.9572 59.9445 58.1939 59.9442C59.0863 59.9727 59.7809 58.9939 59.4532 58.1568ZM14.4027 49.8264L4.14875 55.7981L11.0745 36.59L17.9307 33.2668L14.4027 49.8264ZM28.709 56.5061L17.0145 49.9922C17.9598 45.6135 19.7191 37.4688 20.5786 33.5128C23.0028 36.6465 25.7348 39.5573 28.2717 42.1873L28.3017 42.2174C28.433 42.3477 28.5743 42.4675 28.7244 42.5756L28.709 56.5061ZM30.0192 40.2717C26.0032 36.1043 21.5097 31.2304 18.7044 25.9935C15.453 19.924 15.1285 14.616 17.7072 9.77555C20.0705 5.42578 24.7868 2.67187 30.0188 2.58727C35.2489 2.67211 39.9635 5.4232 42.3281 9.77086C44.9093 14.6194 44.5839 19.9261 41.3336 25.9937C38.5283 31.2305 34.0347 36.1048 30.0188 40.2722L30.0192 40.2717ZM31.2959 56.5065L31.3116 42.5764C31.4624 42.468 31.6044 42.3477 31.7363 42.2169L31.7663 42.1868C34.3032 39.5566 37.0355 36.6457 39.4599 33.5115C40.2669 37.2212 41.8838 44.6939 43.0289 49.9905L31.2959 56.5065ZM45.6418 49.8268L42.1092 33.2673L48.9636 36.5897L55.857 55.7951L45.6418 49.8268Z" fill="#45F882"/>
<path d="M30.0181 7.77246C25.1048 7.77246 21.1074 11.7234 21.1074 16.58C21.1074 21.4366 25.1048 25.3876 30.0181 25.3876C34.9314 25.3876 38.9293 21.4365 38.9293 16.58C38.9293 11.7236 34.9314 7.77246 30.0181 7.77246ZM30.0181 22.8007C26.5312 22.8007 23.6945 20.0101 23.6945 16.58C23.6945 13.15 26.5309 10.3593 30.0181 10.3593C33.5054 10.3593 36.3418 13.1498 36.3418 16.5799C36.3418 20.01 33.5049 22.8007 30.0181 22.8007Z" fill="#45F882"/>
</g>
<defs>
<clipPath id="clip0_199_3175">
<rect width="60" height="60" fill="white"/>
</clipPath>
</defs>
</svg>
