<svg width="60" height="60" viewBox="0 0 60 60" fill="none" xmlns="http://www.w3.org/2000/svg">
<g clip-path="url(#clip0_199_3201)">
<path d="M20.625 52.9673C19.9782 52.9673 19.4531 53.4923 19.4531 54.1392C19.4531 54.7864 19.9782 55.311 20.625 55.311C21.2718 55.311 21.7969 54.7864 21.7969 54.1392C21.7969 53.4923 21.2718 52.9673 20.625 52.9673Z" fill="#45F882"/>
<path d="M58.5187 18.2652C58.5132 18.2611 58.5072 18.2574 58.5017 18.2533L48.75 11.569V8.2017C48.75 7.55488 48.2254 7.02982 47.5781 7.02982H41.9472L33.3865 1.07706C31.3609 -0.358027 28.6391 -0.358027 26.6217 1.07111L18.0515 7.02982H12.4219C11.7746 7.02982 11.25 7.55488 11.25 8.2017V11.569L1.49826 18.2533C1.49277 18.2569 1.48682 18.2611 1.48132 18.2652C0.53833 18.9363 0 20.0239 0 21.1321V56.4829C0 58.385 1.53809 59.9986 3.51562 59.9986H56.4844C58.4633 59.9986 60 58.3836 60 56.4829V21.1321C60 19.9777 59.4237 18.9092 58.5187 18.2652ZM57.6562 56.3447L38.1093 39.9494L57.6562 22.4931V56.3447ZM2.34375 22.4931L21.8907 39.9494L2.34375 56.3447V22.4931ZM23.6572 41.5269L26.0417 43.6564C27.1252 44.6488 28.5306 45.195 30 45.195C31.4694 45.195 32.8748 44.6488 33.9583 43.6564L36.3428 41.5269L55.5716 57.6548H4.42841L23.6572 41.5269ZM56.9183 20.0097L48.75 27.3046V14.4103L56.9183 20.0097ZM27.968 2.9896C29.1833 2.12854 30.8167 2.12809 32.0403 2.99509L37.8419 7.02982H22.1571L27.968 2.9896ZM46.4062 9.37357V29.3975L32.3918 41.9132C32.3877 41.9169 32.3836 41.9206 32.3795 41.9242C31.0231 43.1703 28.9769 43.1703 27.6205 41.9242C27.6164 41.9206 27.6128 41.9169 27.6086 41.9132L13.5938 29.3975C13.5938 24.7897 13.5938 13.6482 13.5938 9.37357H46.4062ZM11.25 27.3046L3.08167 20.0097L11.25 14.4103V27.3046Z" fill="#45F882"/>
<path d="M39.375 52.9673H25.3125C24.6652 52.9673 24.1406 53.4923 24.1406 54.1392C24.1406 54.7864 24.6652 55.311 25.3125 55.311H39.375C40.0223 55.311 40.5469 54.7864 40.5469 54.1392C40.5469 53.4923 40.0223 52.9673 39.375 52.9673Z" fill="#45F882"/>
<path d="M30 35.1548C30.6473 35.1548 31.1719 34.6302 31.1719 33.9829C31.1719 33.3361 30.6473 32.811 30 32.811C25.4768 32.811 21.7969 29.1315 21.7969 24.6079C21.7969 20.0847 25.4768 16.4048 30 16.4048C34.5232 16.4048 38.2031 20.0847 38.2031 24.6079V26.9517C38.2031 27.598 37.6776 28.1235 37.0312 28.1235C36.3849 28.1235 35.8594 27.598 35.8594 26.9517V24.6079C35.8594 21.3775 33.2309 18.7485 30 18.7485C26.7691 18.7485 24.1406 21.3775 24.1406 24.6079C24.1406 27.8388 26.7691 30.4673 30 30.4673C31.5752 30.4673 33.0057 29.8415 34.0599 28.8271C34.6834 29.8118 35.782 30.4673 37.0312 30.4673C38.9699 30.4673 40.5469 28.8903 40.5469 26.9517V24.6079C40.5469 18.7925 35.8154 14.061 30 14.061C24.1846 14.061 19.4531 18.7925 19.4531 24.6079C19.4531 30.4238 24.1846 35.1548 30 35.1548ZM30 28.1235C28.0614 28.1235 26.4844 26.5465 26.4844 24.6079C26.4844 22.6697 28.0614 21.0923 30 21.0923C31.9386 21.0923 33.5156 22.6697 33.5156 24.6079C33.5156 26.5465 31.9386 28.1235 30 28.1235Z" fill="#45F882"/>
</g>
<defs>
<clipPath id="clip0_199_3201">
<rect width="60" height="60" fill="white"/>
</clipPath>
</defs>
</svg>
