<svg width="60" height="60" viewBox="0 0 60 60" fill="none" xmlns="http://www.w3.org/2000/svg">
<g clip-path="url(#clip0_199_3195)">
<path d="M47.4182 37.1678C46.1899 35.8888 44.7083 35.205 43.138 35.205C41.5804 35.205 40.0861 35.8761 38.8071 37.1551L34.8055 41.1441C34.4762 40.9668 34.147 40.8022 33.8304 40.6376C33.3745 40.4096 32.944 40.1943 32.5767 39.9664C28.8284 37.5857 25.4219 34.4832 22.1547 30.4688C20.5718 28.468 19.5081 26.7838 18.7356 25.0742C19.774 24.1245 20.7364 23.1367 21.6735 22.187C22.0281 21.8324 22.3827 21.4652 22.7373 21.1106C25.3966 18.4513 25.3966 15.0068 22.7373 12.3475L19.2801 8.8904C18.8876 8.49783 18.4823 8.0926 18.1024 7.68738C17.3426 6.90224 16.5448 6.09178 15.7217 5.33198C14.4934 4.11629 13.0244 3.47046 11.4795 3.47046C9.93455 3.47046 8.44026 4.11629 7.17392 5.33198C7.16126 5.34464 7.16126 5.34464 7.1486 5.35731L2.84304 9.70086C1.22212 11.3218 0.297691 13.2973 0.0950768 15.5893C-0.208845 19.2871 0.880208 22.7315 1.71599 24.9856C3.76747 30.5195 6.83201 35.6482 11.4035 41.1441C16.9501 47.7671 23.6237 52.9971 31.2471 56.6821C34.1597 58.0624 38.0473 59.696 42.3909 59.9746C42.6568 59.9873 42.9354 59.9999 43.1887 59.9999C46.1139 59.9999 48.5706 58.9489 50.4955 56.8594C50.5081 56.8341 50.5334 56.8214 50.5461 56.7961C51.2046 55.9983 51.9644 55.2765 52.7622 54.504C53.3067 53.9848 53.8639 53.4403 54.4084 52.8704C55.6621 51.5661 56.3206 50.0465 56.3206 48.4889C56.3206 46.9186 55.6495 45.4117 54.3705 44.1453L47.4182 37.1678ZM51.9517 50.5024C51.9391 50.5024 51.9391 50.515 51.9517 50.5024C51.4579 51.0342 50.9513 51.5154 50.4068 52.0473C49.5837 52.8324 48.7479 53.6556 47.9628 54.58C46.6838 55.9476 45.1768 56.5935 43.2013 56.5935C43.0114 56.5935 42.8088 56.5935 42.6188 56.5808C38.8578 56.3402 35.3627 54.8712 32.7413 53.6176C25.5739 50.1478 19.2801 45.2217 14.0502 38.9787C9.73193 33.774 6.84468 28.9619 4.9325 23.7952C3.7548 20.642 3.32425 18.1853 3.5142 15.8679C3.64083 14.3863 4.21069 13.158 5.26175 12.1069L9.57997 7.78868C10.2005 7.20616 10.859 6.88958 11.5048 6.88958C12.3026 6.88958 12.9484 7.37079 13.3537 7.77602C13.3663 7.78868 13.379 7.80135 13.3917 7.81401C14.1641 8.53582 14.8986 9.28297 15.6711 10.0808C16.0636 10.486 16.4689 10.8912 16.8741 11.3091L20.3312 14.7662C21.6735 16.1085 21.6735 17.3496 20.3312 18.6919C19.964 19.0591 19.6094 19.4264 19.2422 19.7809C18.1784 20.87 17.1654 21.8831 16.0636 22.8708C16.0383 22.8961 16.013 22.9088 16.0003 22.9341C14.9113 24.0232 15.1139 25.0869 15.3418 25.8087C15.3545 25.8467 15.3672 25.8847 15.3798 25.9227C16.2789 28.1008 17.5453 30.1523 19.4701 32.5963L19.4828 32.609C22.9779 36.9145 26.6629 40.2703 30.7279 42.841C31.2471 43.1702 31.7789 43.4362 32.2855 43.6895C32.7413 43.9174 33.1719 44.1327 33.5391 44.3606C33.5898 44.3859 33.6405 44.4239 33.6911 44.4493C34.1217 44.6645 34.5269 44.7658 34.9448 44.7658C35.9958 44.7658 36.6543 44.1073 36.8696 43.8921L41.2005 39.5612C41.6311 39.1306 42.3149 38.6114 43.1127 38.6114C43.8978 38.6114 44.5436 39.1053 44.9362 39.5359C44.9489 39.5485 44.9489 39.5485 44.9615 39.5612L51.9391 46.5387C53.2434 47.8304 53.2434 49.16 51.9517 50.5024Z" fill="#45F882"/>
<path d="M32.4248 14.2725C35.7426 14.8296 38.7565 16.3999 41.1625 18.806C43.5686 21.212 45.1262 24.2259 45.696 27.5437C45.8353 28.3795 46.5571 28.962 47.3803 28.962C47.4816 28.962 47.5702 28.9494 47.6715 28.9367C48.6086 28.7847 49.2291 27.8983 49.0772 26.9612C48.3933 22.9469 46.4938 19.2872 43.5939 16.3872C40.694 13.4873 37.0342 11.5878 33.0199 10.904C32.0829 10.752 31.2091 11.3725 31.0445 12.297C30.8798 13.2214 31.4877 14.1205 32.4248 14.2725Z" fill="#45F882"/>
<path d="M59.9289 26.4673C58.8018 19.857 55.6866 13.8418 50.8998 9.05507C46.1131 4.26831 40.098 1.15311 33.4877 0.0260632C32.5632 -0.138561 31.6895 0.494609 31.5248 1.41904C31.3729 2.35613 31.9934 3.22991 32.9305 3.39453C38.8316 4.39494 44.2136 7.19355 48.4938 11.4611C52.774 15.7414 55.56 21.1233 56.5604 27.0245C56.6997 27.8602 57.4215 28.4428 58.2446 28.4428C58.3459 28.4428 58.4346 28.4301 58.5359 28.4174C59.4603 28.2781 60.0935 27.3917 59.9289 26.4673Z" fill="#45F882"/>
</g>
<defs>
<clipPath id="clip0_199_3195">
<rect width="60" height="60" fill="white"/>
</clipPath>
</defs>
</svg>
