<svg width="60" height="60" viewBox="0 0 60 60" fill="none" xmlns="http://www.w3.org/2000/svg">
<path d="M46.793 33.3648C46.3285 33.3645 45.8743 33.5019 45.488 33.7597C45.1016 34.0176 44.8004 34.3842 44.6225 34.8133C44.4446 35.2423 44.398 35.7145 44.4885 36.1701C44.579 36.6257 44.8026 37.0442 45.1311 37.3726C45.4595 37.7011 45.878 37.9247 46.3335 38.0152C46.7891 38.1058 47.2613 38.0592 47.6904 37.8813C48.1194 37.7034 48.4861 37.4022 48.7439 37.0159C49.0018 36.6295 49.1393 36.1754 49.1389 35.7109C49.1378 35.0891 48.8903 34.493 48.4506 34.0533C48.0108 33.6136 47.4148 33.366 46.793 33.3648ZM46.793 36.1852C46.6994 36.1855 46.6079 36.1581 46.53 36.1065C46.4521 36.0548 46.3912 35.9812 46.3551 35.8949C46.319 35.8087 46.3093 35.7136 46.3272 35.6218C46.3451 35.5301 46.3899 35.4457 46.4558 35.3793C46.5217 35.313 46.6057 35.2677 46.6974 35.2491C46.789 35.2305 46.8841 35.2396 46.9706 35.2751C47.0572 35.3106 47.1312 35.3709 47.1834 35.4485C47.2356 35.5261 47.2636 35.6174 47.2639 35.7109C47.2638 35.8361 47.2142 35.9561 47.126 36.0449C47.0378 36.1338 46.9181 36.1841 46.793 36.1852ZM43.0325 37.1218C42.5682 37.1215 42.1142 37.2589 41.7279 37.5166C41.3416 37.7742 41.0404 38.1407 40.8624 38.5696C40.6844 38.9984 40.6376 39.4705 40.7278 39.926C40.8181 40.3815 41.0414 40.7999 41.3695 41.1285C41.6976 41.4571 42.1158 41.681 42.5712 41.7719C43.0265 41.8628 43.4986 41.8166 43.9277 41.6392C44.3569 41.4618 44.7237 41.1611 44.982 40.7752C45.2402 40.3893 45.3782 39.9355 45.3785 39.4711C45.3782 38.8487 45.1311 38.2519 44.6913 37.8114C44.2515 37.371 43.655 37.123 43.0326 37.1218H43.0325ZM43.0325 39.9422C42.9389 39.9425 42.8472 39.9151 42.7692 39.8633C42.6912 39.8115 42.6304 39.7377 42.5944 39.6512C42.5584 39.5648 42.5489 39.4696 42.567 39.3777C42.5852 39.2859 42.6302 39.2015 42.6965 39.1352C42.7627 39.069 42.847 39.0239 42.9389 39.0057C43.0308 38.9875 43.126 38.997 43.2124 39.033C43.2989 39.069 43.3727 39.1298 43.4245 39.2078C43.4763 39.2858 43.5038 39.3775 43.5035 39.4711C43.5034 39.596 43.4537 39.7157 43.3655 39.804C43.2772 39.8923 43.1575 39.942 43.0326 39.9422H43.0325ZM41.6215 35.7109C41.6208 35.2471 41.4827 34.7938 41.2245 34.4085C40.9663 34.0231 40.5997 33.7229 40.171 33.5459C39.7423 33.3688 39.2707 33.3228 38.8158 33.4137C38.361 33.5046 37.9432 33.7283 37.6155 34.0565C37.2877 34.3847 37.0646 34.8027 36.9744 35.2577C36.8841 35.7127 36.9308 36.1842 37.1084 36.6127C37.2861 37.0412 37.5868 37.4074 37.9725 37.665C38.3582 37.9227 38.8116 38.0602 39.2755 38.0602C39.8981 38.0595 40.4949 37.8117 40.9348 37.3711C41.3747 36.9306 41.6216 36.3335 41.6215 35.7109ZM39.2755 36.1852C39.182 36.1855 39.0905 36.1581 39.0125 36.1065C38.9346 36.0548 38.8737 35.9812 38.8376 35.8949C38.8016 35.8087 38.7918 35.7136 38.8098 35.6218C38.8277 35.5301 38.8724 35.4457 38.9383 35.3793C39.0042 35.313 39.0883 35.2677 39.1799 35.2491C39.2716 35.2305 39.3667 35.2396 39.4532 35.2751C39.5397 35.3106 39.6137 35.3709 39.6659 35.4485C39.7181 35.5261 39.7462 35.6174 39.7465 35.7109C39.7468 35.8362 39.6973 35.9565 39.6091 36.0454C39.5208 36.1343 39.4009 36.1845 39.2756 36.1852H39.2755ZM43.0325 34.2999C43.4965 34.2999 43.9501 34.1623 44.336 33.9045C44.7218 33.6467 45.0225 33.2803 45.2001 32.8517C45.3777 32.423 45.4242 31.9512 45.3337 31.4961C45.2432 31.041 45.0197 30.623 44.6916 30.2949C44.3635 29.9667 43.9455 29.7433 43.4904 29.6528C43.0353 29.5622 42.5636 29.6087 42.1349 29.7862C41.7062 29.9638 41.3397 30.2645 41.0819 30.6503C40.8241 31.0361 40.6866 31.4897 40.6866 31.9538C40.6872 32.5758 40.9346 33.1721 41.3745 33.6119C41.8143 34.0518 42.4106 34.2992 43.0326 34.2999H43.0325ZM43.0325 31.4828C43.1257 31.4828 43.2168 31.5104 43.2943 31.5621C43.3718 31.6139 43.4322 31.6875 43.4679 31.7735C43.5035 31.8596 43.5129 31.9544 43.4947 32.0458C43.4765 32.1372 43.4316 32.2211 43.3658 32.287C43.2999 32.3529 43.2159 32.3978 43.1245 32.4159C43.0331 32.4341 42.9384 32.4248 42.8523 32.3891C42.7662 32.3534 42.6926 32.293 42.6409 32.2155C42.5891 32.138 42.5615 32.0469 42.5616 31.9538C42.5617 31.8289 42.6114 31.7092 42.6997 31.6209C42.788 31.5326 42.9078 31.4829 43.0326 31.4828H43.0325ZM58.4712 49.0313C58.3746 45.4027 57.0432 41.2852 55.8687 37.6524C55.4819 36.4559 55.1164 35.3259 54.8095 34.2609C52.2138 25.6445 50.516 23.505 46.7001 23.0379C47.4421 20.1378 47.4162 17.0945 46.6249 14.2075C45.8337 11.3205 44.3044 8.68927 42.1875 6.57271C40.0097 4.39523 37.2884 2.84092 34.3065 2.07139C31.3246 1.30185 28.1909 1.3452 25.2314 2.19692C22.2719 3.04865 19.5947 4.67764 17.478 6.91452C15.3613 9.1514 13.8824 11.9145 13.1953 14.9165C12.5848 17.5933 12.6201 20.3771 13.2984 23.0376C9.48315 23.5042 7.78475 25.644 5.18588 34.2717C4.88237 35.3249 4.51792 36.4538 4.1312 37.649C2.95674 41.2818 1.62561 45.4003 1.52893 49.0296C1.41174 53.4241 3.18034 56.4076 6.78491 57.8967C8.51385 58.5902 10.4295 58.6641 12.2067 58.1057C14.1539 57.512 15.9367 56.2349 17.363 54.4118L21.6784 48.8876C22.6275 49.3362 23.7093 49.4169 24.7144 49.114C25.7196 48.8112 26.5767 48.1464 27.1201 47.2481H32.8799C33.4234 48.1463 34.2805 48.8112 35.2856 49.1142C36.2908 49.4172 37.3726 49.3369 38.3219 48.8888L42.6398 54.4124C44.0638 56.2352 45.8457 57.5125 47.7928 58.1063C48.5885 58.35 49.4158 58.4744 50.248 58.4756C51.2649 58.4791 52.2726 58.2827 53.2138 57.8975C56.8189 56.4083 58.588 53.4258 58.4712 49.0313ZM15.2109 22.9251C14.9139 21.8725 14.7293 20.7915 14.6601 19.7001H21.0197C21.0515 20.8755 21.1465 22.0485 21.3041 23.2138C20.5793 23.0024 19.8266 22.9025 19.0718 22.9176C17.6484 22.9176 15.9094 22.9188 15.2109 22.9251ZM45.3433 17.8251H38.9801C38.9242 15.549 38.6189 13.286 38.0699 11.0765H43.3055C44.5026 13.1359 45.2005 15.4472 45.3431 17.8251H45.3433ZM37.1098 17.8251H30.9387V11.0765H36.1355C36.7278 13.2792 37.0548 15.5447 37.1095 17.8251H37.1098ZM30.9387 9.20146V3.54716C32.3692 3.99247 33.7581 5.43294 34.8544 7.65095C35.0969 8.14197 35.3197 8.66099 35.5247 9.20146H30.9387ZM29.0637 3.54622V9.20146H24.4742C24.6791 8.66099 24.9019 8.14197 25.1443 7.65107C26.2415 5.4313 27.6317 3.99013 29.0634 3.54622H29.0637ZM29.0637 11.0765V17.8251H22.8907C22.9453 15.5448 23.272 13.2792 23.8639 11.0765H29.0637ZM21.0204 17.8251H14.6555C14.7982 15.4472 15.496 13.1359 16.6931 11.0765H21.9295C21.3809 13.286 21.076 15.5491 21.0201 17.8251H21.0204ZM23.4006 24.4282C23.108 22.8678 22.9379 21.287 22.892 19.7001H29.0637V25.751H24.8164C24.6614 25.6049 24.5139 25.4632 24.3694 25.3247C24.0336 25.0027 23.7193 24.7015 23.4003 24.4282H23.4006ZM25.3844 27.626H34.6172V29.366C34.6166 29.8282 34.4328 30.2713 34.106 30.5981C33.7792 30.9249 33.3361 31.1088 32.8739 31.1093H27.1242C26.6625 31.1083 26.2199 30.9243 25.8937 30.5975C25.5675 30.2706 25.3843 29.8278 25.3842 29.366L25.3844 27.626ZM35.6331 25.3242C35.4885 25.463 35.3401 25.6048 35.1855 25.7511H30.9384V19.7001H37.1083C37.0622 21.2881 36.8915 22.8701 36.5978 24.4314C36.2803 24.7031 35.9673 25.0035 35.6331 25.3242ZM38.9803 19.7002H45.3382C45.269 20.7916 45.0844 21.8726 44.7874 22.9252C44.0927 22.9191 42.3516 22.9177 40.9261 22.9177C40.1717 22.9028 39.4195 23.003 38.6953 23.2149C38.8533 22.0492 38.9484 20.8759 38.9803 19.7001V19.7002ZM42.0234 9.20146H37.5152C37.2403 8.38731 36.9127 7.59189 36.5346 6.82021C36.0801 5.88043 35.52 4.99557 34.8649 4.18279C37.126 4.93715 39.1794 6.20955 40.8614 7.89845C41.2727 8.31083 41.6606 8.74584 42.0234 9.20146ZM25.1331 4.18279C24.4781 4.99563 23.9179 5.88053 23.4634 6.82033C23.0853 7.59194 22.7579 8.38733 22.4831 9.20146H17.9746C18.3374 8.74583 18.7254 8.31082 19.1367 7.89845C20.8187 6.20958 22.8721 4.93719 25.1331 4.18279ZM23.4901 47.4197C23.0203 47.4204 22.5609 47.2817 22.17 47.0212C21.7791 46.7607 21.4742 46.3901 21.294 45.9563C21.1137 45.5224 21.0662 45.0449 21.1575 44.5841C21.2487 44.1233 21.4746 43.6999 21.8065 43.3675C22.1384 43.035 22.5615 42.8086 23.0222 42.7167C23.4829 42.6248 23.9605 42.6716 24.3946 42.8512C24.8287 43.0308 25.1997 43.3352 25.4608 43.7257C25.7218 44.1163 25.8612 44.5755 25.8612 45.0452C25.8604 45.6742 25.6105 46.2772 25.1661 46.7223C24.7217 47.1673 24.119 47.4181 23.4901 47.4197ZM34.1374 45.0452C34.1377 44.5761 34.2771 44.1176 34.538 43.7276C34.7988 43.3376 35.1694 43.0338 35.6029 42.8544C36.0364 42.675 36.5134 42.6281 36.9735 42.7197C37.4337 42.8114 37.8563 43.0373 38.1881 43.3691C38.5198 43.7008 38.7458 44.1234 38.8374 44.5836C38.929 45.0437 38.8821 45.5207 38.7027 45.9542C38.5233 46.3877 38.2195 46.7583 37.8295 47.0191C37.4396 47.28 36.981 47.4194 36.5119 47.4197C35.8823 47.419 35.2788 47.1686 34.8337 46.7234C34.3885 46.2783 34.1381 45.6748 34.1374 45.0452ZM52.4972 56.1643C49.6921 57.3245 46.4025 56.1836 44.1167 53.2581L39.798 47.7329C40.2291 47.2061 40.5273 46.5834 40.6673 45.9172C40.8074 45.251 40.7854 44.561 40.603 43.9051C40.4206 43.2493 40.0833 42.6468 39.6194 42.1486C39.1556 41.6504 38.5788 41.2709 37.9376 41.0422C37.2964 40.8135 36.6097 40.7423 35.9352 40.8345C35.2608 40.9267 34.6184 41.1797 34.0621 41.572C33.5058 41.9644 33.052 42.4848 32.7389 43.0892C32.4258 43.6937 32.2625 44.3645 32.2629 45.0452C32.2629 45.1559 32.2685 45.2651 32.2768 45.3734H27.7222C27.7305 45.265 27.7362 45.1558 27.7362 45.0452C27.7366 44.3645 27.5734 43.6935 27.2603 43.089C26.9472 42.4845 26.4934 41.9641 25.9372 41.5716C25.3809 41.1791 24.7384 40.9261 24.0639 40.8339C23.3894 40.7416 22.7026 40.8128 22.0614 41.0415C21.4202 41.2702 20.8433 41.6497 20.3794 42.148C19.9155 42.6462 19.5781 43.2487 19.3958 43.9046C19.2134 44.5605 19.1914 45.2507 19.3315 45.9169C19.4716 46.5831 19.7698 47.2058 20.201 47.7327L15.8851 53.2574C13.5968 56.1832 10.3059 57.3238 7.50092 56.1636C1.46635 53.6719 3.12268 46.8651 5.91526 38.2266C6.30631 37.0167 6.67569 35.8739 6.98436 34.8026C9.82721 25.3654 11.1814 24.8885 15.0299 24.8029C15.3714 24.7967 16.8069 24.7931 19.0719 24.7931C21.1062 24.7931 21.722 25.384 23.0714 26.6785C23.212 26.8137 23.3573 26.9524 23.5092 27.096V29.366C23.5099 30.3249 23.8909 31.2443 24.5686 31.9226C25.2463 32.6009 26.1654 32.9827 27.1242 32.9843H32.8744C33.8336 32.9831 34.7531 32.6015 35.4314 31.9232C36.1096 31.2449 36.4911 30.3252 36.4922 29.366V27.0954C36.6445 26.9516 36.7895 26.8126 36.9306 26.6772C38.2795 25.3832 38.8951 24.7926 40.9267 24.7926C43.1918 24.7926 44.6272 24.7961 44.9653 24.8023C48.8173 24.8876 50.1714 25.3648 53.0112 34.7911C53.3232 35.8744 53.6932 37.0177 54.0847 38.2293C56.8773 46.8666 58.5337 53.6719 52.4972 56.1643ZM19.3144 33.3648H18.6076V32.6581C18.6076 32.0359 18.3604 31.4392 17.9205 30.9992C17.4805 30.5592 16.8838 30.3121 16.2616 30.3121C15.6394 30.3121 15.0427 30.5592 14.6028 30.9992C14.1628 31.4392 13.9157 32.0359 13.9157 32.6581V33.3648H13.2088C12.5894 33.3692 11.997 33.6183 11.5606 34.0578C11.1242 34.4973 10.8793 35.0915 10.8793 35.7109C10.8793 36.3302 11.1242 36.9244 11.5606 37.3639C11.997 37.8034 12.5894 38.0525 13.2088 38.0569H13.9157V38.7669C13.9157 39.3891 14.1628 39.9858 14.6028 40.4258C15.0427 40.8657 15.6394 41.1129 16.2616 41.1129C16.8838 41.1129 17.4805 40.8657 17.9205 40.4258C18.3604 39.9858 18.6076 39.3891 18.6076 38.7669V38.0569H19.3144C19.6238 38.0591 19.9307 38 20.2173 37.8831C20.5038 37.7662 20.7644 37.5937 20.984 37.3756C21.2036 37.1576 21.3779 36.8982 21.4969 36.6125C21.6158 36.3268 21.677 36.0203 21.677 35.7109C21.677 35.4014 21.6158 35.0949 21.4969 34.8092C21.3779 34.5235 21.2036 34.2641 20.984 34.0461C20.7644 33.828 20.5038 33.6555 20.2173 33.5386C19.9307 33.4217 19.6238 33.3626 19.3144 33.3648ZM19.3144 36.1819H17.6701C17.4215 36.1819 17.183 36.2807 17.0072 36.4565C16.8314 36.6323 16.7326 36.8707 16.7326 37.1194V38.7669C16.7326 38.8918 16.683 39.0116 16.5947 39.1C16.5063 39.1883 16.3865 39.2379 16.2616 39.2379C16.1367 39.2379 16.0169 39.1883 15.9286 39.1C15.8403 39.0116 15.7906 38.8918 15.7906 38.7669V37.1194C15.7906 36.8707 15.6919 36.6323 15.5161 36.4565C15.3402 36.2807 15.1018 36.1819 14.8532 36.1819H13.2088C13.1467 36.1825 13.0852 36.1708 13.0278 36.1474C12.9703 36.1239 12.9182 36.0893 12.8743 36.0454C12.8305 36.0015 12.7958 35.9494 12.7724 35.8919C12.749 35.8345 12.7372 35.7729 12.7379 35.7109C12.738 35.586 12.7876 35.4663 12.8759 35.378C12.9642 35.2897 13.0839 35.24 13.2088 35.2398H14.8532C15.1018 35.2398 15.3402 35.141 15.5161 34.9652C15.6919 34.7894 15.7906 34.551 15.7906 34.3023V32.6581C15.7906 32.5331 15.8403 32.4134 15.9286 32.325C16.0169 32.2367 16.1367 32.1871 16.2616 32.1871C16.3865 32.1871 16.5063 32.2367 16.5947 32.325C16.683 32.4134 16.7326 32.5331 16.7326 32.6581V34.3023C16.7326 34.551 16.8314 34.7894 17.0072 34.9652C17.183 35.141 17.4215 35.2398 17.6701 35.2398H19.3144C19.438 35.2418 19.5559 35.2923 19.6427 35.3804C19.7294 35.4685 19.778 35.5872 19.778 35.7109C19.778 35.8345 19.7294 35.9532 19.6427 36.0413C19.5559 36.1295 19.438 36.1799 19.3144 36.1819Z" fill="#45F882"/>
</svg>
