<svg width="60" height="60" viewBox="0 0 60 60" fill="none" xmlns="http://www.w3.org/2000/svg">
<path d="M34 47.2727H25.9091" stroke="#45F882" stroke-width="2" stroke-miterlimit="10" stroke-linecap="round" stroke-linejoin="round"/>
<path d="M18.2727 51.2727C15.5455 55.2727 12.2727 58.1818 9.45456 58.1818C9.09092 58.1818 8.72728 58.1818 8.45456 58C4.54547 56.9091 3.36365 49.4545 3.36365 42.2727C3.36365 40.1818 3.45456 38.1818 3.54547 36.2727C4.18183 27.2727 9.09092 25.4545 15.0909 25.4545C17.6364 25.4545 19.7273 25.7273 21.2727 26.8182C23 28 25 28.8182 27.0909 28.8182H32.9091C35 28.8182 37 28.0909 38.7273 26.8182C40.2727 25.7273 42.3636 25.4545 44.9091 25.4545C50.9091 25.4545 55.8182 27.1818 56.4546 36.1818C56.6364 38.0909 56.6364 40.0909 56.6364 42.1818C56.6364 49.4545 55.4546 56.9091 51.5455 58C51.2727 58.1818 50.9091 58.1818 50.5455 58.1818C47.7273 58.1818 44.4546 55.2727 41.7273 51.2727" stroke="#45F882" stroke-width="2" stroke-miterlimit="10" stroke-linecap="round" stroke-linejoin="round"/>
<path d="M7.36365 38.3637H10.9091V42H14.1818V38.3637H17.8182V35.0909H14.1818V31.5455H10.9091V35.0909H7.36365V38.3637Z" stroke="#45F882" stroke-width="2" stroke-miterlimit="10" stroke-linecap="round" stroke-linejoin="round"/>
<path d="M47.5455 31.6364C47.5455 32.7273 46.6364 33.5455 45.6364 33.5455C44.5455 33.5455 43.7273 32.6364 43.7273 31.6364C43.7273 30.5455 44.6364 29.7273 45.6364 29.7273C46.6364 29.7273 47.5455 30.6364 47.5455 31.6364Z" stroke="#45F882" stroke-width="2" stroke-miterlimit="10" stroke-linecap="round" stroke-linejoin="round"/>
<path d="M47.5455 41.8182C47.5455 42.9091 46.6364 43.7273 45.6364 43.7273C44.5455 43.7273 43.7273 42.8182 43.7273 41.8182C43.7273 40.8182 44.6364 39.9091 45.6364 39.9091C46.6364 39.9091 47.5455 40.8182 47.5455 41.8182Z" stroke="#45F882" stroke-width="2" stroke-miterlimit="10" stroke-linecap="round" stroke-linejoin="round"/>
<path d="M50.6364 38.7273C49.5455 38.7273 48.7273 37.8182 48.7273 36.8182C48.7273 35.7273 49.6364 34.9091 50.6364 34.9091C51.7273 34.9091 52.5455 35.8182 52.5455 36.8182C52.6364 37.8182 51.7273 38.7273 50.6364 38.7273Z" stroke="#45F882" stroke-width="2" stroke-miterlimit="10" stroke-linecap="round" stroke-linejoin="round"/>
<path d="M40.4546 38.7273C39.3637 38.7273 38.5455 37.8182 38.5455 36.8182C38.5455 35.8182 39.4546 34.9091 40.4546 34.9091C41.4546 34.9091 42.3637 35.8182 42.3637 36.8182C42.3637 37.8182 41.5455 38.7273 40.4546 38.7273Z" stroke="#45F882" stroke-width="2" stroke-miterlimit="10" stroke-linecap="round" stroke-linejoin="round"/>
<path d="M38.4546 52.6364C40.9148 52.6364 42.9091 50.642 42.9091 48.1818C42.9091 45.7217 40.9148 43.7273 38.4546 43.7273C35.9944 43.7273 34 45.7217 34 48.1818C34 50.642 35.9944 52.6364 38.4546 52.6364Z" stroke="#45F882" stroke-width="2" stroke-miterlimit="10" stroke-linecap="round" stroke-linejoin="round"/>
<path d="M21.5455 52.6364C24.0057 52.6364 26 50.642 26 48.1818C26 45.7217 24.0057 43.7273 21.5455 43.7273C19.0853 43.7273 17.0909 45.7217 17.0909 48.1818C17.0909 50.642 19.0853 52.6364 21.5455 52.6364Z" stroke="#45F882" stroke-width="2" stroke-miterlimit="10" stroke-linecap="round" stroke-linejoin="round"/>
<path d="M34.8182 33.1818H36.4546" stroke="#45F882" stroke-width="2" stroke-miterlimit="10" stroke-linecap="round" stroke-linejoin="round"/>
<path d="M33.4546 40.2727H35.0909" stroke="#45F882" stroke-width="2" stroke-miterlimit="10" stroke-linecap="round" stroke-linejoin="round"/>
<path d="M25.1818 33.1818H23.5455" stroke="#45F882" stroke-width="2" stroke-miterlimit="10" stroke-linecap="round" stroke-linejoin="round"/>
<path d="M26.5455 40.2727H24.9091" stroke="#45F882" stroke-width="2" stroke-miterlimit="10" stroke-linecap="round" stroke-linejoin="round"/>
<path d="M19.0909 8.99999L30.7273 12.1818L42.3637 8.81818V18.5454C42.3637 20.5454 40.7273 22.2727 38.6364 22.2727H22.8182C20.8182 22.2727 19.0909 20.6364 19.0909 18.5454V8.99999Z" stroke="#45F882" stroke-width="2" stroke-miterlimit="10" stroke-linecap="round" stroke-linejoin="round"/>
<path d="M47.5455 7.27272L30.7273 12.1818L12.5455 7.27272L30.7273 1.81818L47.5455 7.27272Z" stroke="#45F882" stroke-width="2" stroke-miterlimit="10" stroke-linecap="round" stroke-linejoin="round"/>
<path d="M12.5455 7.27271V14.1818" stroke="#45F882" stroke-width="2" stroke-miterlimit="10" stroke-linecap="round" stroke-linejoin="round"/>
<path d="M15.2728 16.9091C15.2728 18.4546 14.0909 19.6364 12.5455 19.6364C11 19.6364 9.81821 18.4546 9.81821 16.9091C9.81821 15.3636 11 14.1818 12.5455 14.1818C14.0909 14.1818 15.2728 15.3636 15.2728 16.9091Z" stroke="#45F882" stroke-width="2" stroke-miterlimit="10" stroke-linecap="round" stroke-linejoin="round"/>
<path d="M30.7273 22.1818V28.8182" stroke="#45F882" stroke-width="2" stroke-miterlimit="10" stroke-linecap="round" stroke-linejoin="round"/>
<path d="M34 47.2727H25.9091" stroke="#45F882" stroke-width="2" stroke-miterlimit="10" stroke-linecap="round" stroke-linejoin="round"/>
<path d="M18.2727 51.2727C15.5455 55.2727 12.2727 58.1818 9.45456 58.1818C9.09092 58.1818 8.72728 58.1818 8.45456 58C4.54547 56.9091 3.36365 49.4545 3.36365 42.2727C3.36365 40.1818 3.45456 38.1818 3.54547 36.2727C4.18183 27.2727 9.09092 25.4545 15.0909 25.4545C17.6364 25.4545 19.7273 25.7273 21.2727 26.8182C23 28 25 28.8182 27.0909 28.8182H32.9091C35 28.8182 37 28.0909 38.7273 26.8182C40.2727 25.7273 42.3636 25.4545 44.9091 25.4545C50.9091 25.4545 55.8182 27.1818 56.4546 36.1818C56.6364 38.0909 56.6364 40.0909 56.6364 42.1818C56.6364 49.4545 55.4546 56.9091 51.5455 58C51.2727 58.1818 50.9091 58.1818 50.5455 58.1818C47.7273 58.1818 44.4546 55.2727 41.7273 51.2727" stroke="#45F882" stroke-width="2" stroke-miterlimit="10" stroke-linecap="round" stroke-linejoin="round"/>
<path d="M7.36365 38.3637H10.9091V42H14.1818V38.3637H17.8182V35.0909H14.1818V31.5455H10.9091V35.0909H7.36365V38.3637Z" stroke="#45F882" stroke-width="2" stroke-miterlimit="10" stroke-linecap="round" stroke-linejoin="round"/>
<path d="M47.5455 31.6364C47.5455 32.7273 46.6364 33.5455 45.6364 33.5455C44.5455 33.5455 43.7273 32.6364 43.7273 31.6364C43.7273 30.5455 44.6364 29.7273 45.6364 29.7273C46.6364 29.7273 47.5455 30.6364 47.5455 31.6364Z" stroke="#45F882" stroke-width="2" stroke-miterlimit="10" stroke-linecap="round" stroke-linejoin="round"/>
<path d="M47.5455 41.8182C47.5455 42.9091 46.6364 43.7273 45.6364 43.7273C44.5455 43.7273 43.7273 42.8182 43.7273 41.8182C43.7273 40.8182 44.6364 39.9091 45.6364 39.9091C46.6364 39.9091 47.5455 40.8182 47.5455 41.8182Z" stroke="#45F882" stroke-width="2" stroke-miterlimit="10" stroke-linecap="round" stroke-linejoin="round"/>
<path d="M50.6364 38.7273C49.5455 38.7273 48.7273 37.8182 48.7273 36.8182C48.7273 35.7273 49.6364 34.9091 50.6364 34.9091C51.7273 34.9091 52.5455 35.8182 52.5455 36.8182C52.6364 37.8182 51.7273 38.7273 50.6364 38.7273Z" stroke="#45F882" stroke-width="2" stroke-miterlimit="10" stroke-linecap="round" stroke-linejoin="round"/>
<path d="M40.4546 38.7273C39.3637 38.7273 38.5455 37.8182 38.5455 36.8182C38.5455 35.8182 39.4546 34.9091 40.4546 34.9091C41.4546 34.9091 42.3637 35.8182 42.3637 36.8182C42.3637 37.8182 41.5455 38.7273 40.4546 38.7273Z" stroke="#45F882" stroke-width="2" stroke-miterlimit="10" stroke-linecap="round" stroke-linejoin="round"/>
<path d="M38.4546 52.6364C40.9148 52.6364 42.9091 50.642 42.9091 48.1818C42.9091 45.7217 40.9148 43.7273 38.4546 43.7273C35.9944 43.7273 34 45.7217 34 48.1818C34 50.642 35.9944 52.6364 38.4546 52.6364Z" stroke="#45F882" stroke-width="2" stroke-miterlimit="10" stroke-linecap="round" stroke-linejoin="round"/>
<path d="M21.5455 52.6364C24.0057 52.6364 26 50.642 26 48.1818C26 45.7217 24.0057 43.7273 21.5455 43.7273C19.0853 43.7273 17.0909 45.7217 17.0909 48.1818C17.0909 50.642 19.0853 52.6364 21.5455 52.6364Z" stroke="#45F882" stroke-width="2" stroke-miterlimit="10" stroke-linecap="round" stroke-linejoin="round"/>
<path d="M34.8182 33.1818H36.4546" stroke="#45F882" stroke-width="2" stroke-miterlimit="10" stroke-linecap="round" stroke-linejoin="round"/>
<path d="M33.4546 40.2727H35.0909" stroke="#45F882" stroke-width="2" stroke-miterlimit="10" stroke-linecap="round" stroke-linejoin="round"/>
<path d="M25.1818 33.1818H23.5455" stroke="#45F882" stroke-width="2" stroke-miterlimit="10" stroke-linecap="round" stroke-linejoin="round"/>
<path d="M26.5455 40.2727H24.9091" stroke="#45F882" stroke-width="2" stroke-miterlimit="10" stroke-linecap="round" stroke-linejoin="round"/>
<path d="M19.0909 8.99999L30.7273 12.1818L42.3637 8.81818V18.5454C42.3637 20.5454 40.7273 22.2727 38.6364 22.2727H22.8182C20.8182 22.2727 19.0909 20.6364 19.0909 18.5454V8.99999Z" stroke="#45F882" stroke-width="2" stroke-miterlimit="10" stroke-linecap="round" stroke-linejoin="round"/>
<path d="M47.5455 7.27272L30.7273 12.1818L12.5455 7.27272L30.7273 1.81818L47.5455 7.27272Z" stroke="#45F882" stroke-width="2" stroke-miterlimit="10" stroke-linecap="round" stroke-linejoin="round"/>
<path d="M12.5455 7.27271V14.1818" stroke="#45F882" stroke-width="2" stroke-miterlimit="10" stroke-linecap="round" stroke-linejoin="round"/>
<path d="M15.2728 16.9091C15.2728 18.4546 14.0909 19.6364 12.5455 19.6364C11 19.6364 9.81821 18.4546 9.81821 16.9091C9.81821 15.3636 11 14.1818 12.5455 14.1818C14.0909 14.1818 15.2728 15.3636 15.2728 16.9091Z" stroke="#45F882" stroke-width="2" stroke-miterlimit="10" stroke-linecap="round" stroke-linejoin="round"/>
<path d="M30.7273 22.1818V28.8182" stroke="#45F882" stroke-width="2" stroke-miterlimit="10" stroke-linecap="round" stroke-linejoin="round"/>
</svg>
