<svg width="60" height="60" viewBox="0 0 60 60" fill="none" xmlns="http://www.w3.org/2000/svg">
<g clip-path="url(#clip0_55_91)">
<path d="M26.4797 34.6136C26.928 34.3546 27.0816 33.7813 26.8227 33.3329L24.4557 29.2333C26.7659 28.6016 29.1669 28.6325 31.6223 28.7333C32.3327 28.7618 32.9748 28.4172 33.3422 27.8098C33.7098 27.2024 33.7173 26.4725 33.3623 25.8575L31.7825 23.1213C32.6054 22.2299 32.7947 20.8711 32.157 19.7665C31.7768 19.1081 31.1632 18.6373 30.4288 18.4405C29.9753 18.319 29.5095 18.3114 29.064 18.4129L27.379 15.4943C27.0346 14.8976 26.4176 14.5391 25.7285 14.535C25.7248 14.535 25.721 14.535 25.7173 14.535C25.0329 14.535 24.4167 14.886 24.0674 15.4753C23.8574 15.8296 23.6446 16.1985 23.4265 16.5762C22.2863 18.5515 20.9957 20.7871 19.2807 22.3399L16.4261 23.9879C15.4651 24.5427 14.7769 25.4418 14.4881 26.5194C14.1994 27.5971 14.3459 28.7197 14.9006 29.6806C15.4554 30.6415 16.3545 31.3297 17.4321 31.6186C17.7934 31.7153 18.1596 31.7632 18.5231 31.7632C19.2442 31.7632 19.9546 31.5748 20.5934 31.2059L20.6455 31.1758L22.2363 33.9313C22.7381 34.8005 23.6517 35.2869 24.5898 35.2869C25.0496 35.2869 25.5155 35.17 25.9416 34.924L26.4797 34.6136ZM30.5332 20.7041C30.6186 20.8519 30.6618 21.0158 30.6628 21.182L30.1842 20.353C30.3275 20.437 30.4479 20.5563 30.5332 20.7041ZM25.6943 16.4128C25.695 16.4126 25.7016 16.4102 25.717 16.4102C25.7318 16.4102 25.7406 16.4127 25.7409 16.4127C25.7415 16.4132 25.747 16.4179 25.7551 16.4318L31.7385 26.795C31.7469 26.8097 31.748 26.8171 31.748 26.8171C31.748 26.8174 31.7468 26.8247 31.738 26.8393C31.7293 26.8538 31.7235 26.8581 31.7235 26.8581C31.7231 26.8582 31.7164 26.8604 31.6993 26.8601C31.4275 26.849 31.1536 26.8391 30.8789 26.8304L25.2755 17.1249C25.4119 16.8893 25.5472 16.6566 25.6807 16.4315C25.6887 16.4175 25.6944 16.4129 25.6943 16.4128ZM24.1868 18.9894L28.7032 26.8123C26.9706 26.848 25.2138 27.0334 23.4922 27.5646L21.0146 23.2732C22.2777 22.005 23.2921 20.4817 24.1868 18.9894ZM17.9175 29.8076C17.3236 29.6484 16.8288 29.2705 16.5245 28.7432C16.2202 28.2159 16.1401 27.5986 16.2993 27.0048C16.4584 26.4109 16.8363 25.9161 17.3636 25.6118L19.4909 24.3837L21.783 28.354L19.6557 29.5822C19.1289 29.8868 18.5115 29.9668 17.9175 29.8076ZM24.369 33.3829C24.1521 33.3247 23.9714 33.1866 23.8602 32.994L22.2693 30.2386L22.7207 29.978L24.6991 33.4048C24.5902 33.4191 24.4786 33.4122 24.369 33.3829ZM35.4825 21.8706C35.9827 22.0047 36.2794 22.5186 36.1454 23.0188C36.0332 23.4376 35.6544 23.7138 35.2404 23.7138C35.16 23.7138 35.0784 23.7034 34.9971 23.6817L33.6962 23.3331C33.1961 23.199 32.8993 22.685 33.0333 22.1849C33.1673 21.6849 33.6814 21.3883 34.1815 21.522L35.4825 21.8706ZM32.7824 19.4056C32.5235 18.9571 32.6771 18.3838 33.1255 18.1249L34.2919 17.4516C34.7402 17.1927 35.3136 17.3463 35.5725 17.7947C35.8314 18.2432 35.6777 18.8165 35.2294 19.0753L34.063 19.7487C33.9154 19.834 33.7542 19.8744 33.5951 19.8744C33.2712 19.8744 32.9561 19.7063 32.7824 19.4056ZM29.9364 16.522L30.285 15.2211C30.4191 14.7211 30.933 14.4245 31.4332 14.5582C31.9334 14.6923 32.2301 15.2064 32.0961 15.7064L31.7475 17.0073C31.6352 17.4261 31.2565 17.7024 30.8425 17.7024C30.7621 17.7024 30.6805 17.6919 30.5992 17.6702C30.0991 17.5362 29.8023 17.0221 29.9364 16.522ZM58.7972 44.7456L55.39 34.8326C54.5747 32.4605 52.8538 30.7136 50.7907 29.9109V13.7083C50.7907 11.1575 48.7155 9.08239 46.1648 9.08239H5.56336C3.01266 9.08239 0.9375 11.1575 0.9375 13.7083V39.0825C0.9375 41.6333 3.01266 43.7085 5.56336 43.7085H17.3871V47.6935H12.7104C10.4591 47.6935 8.62746 49.2414 8.62746 51.144V53.6572C8.62746 54.175 9.04723 54.5947 9.56496 54.5947H22.7449C23.4742 57.1443 25.579 59.0533 27.6834 59.0533C29.2601 59.0533 30.4864 57.9894 30.964 56.2075L31.3962 54.5947H42.1632C42.681 54.5947 43.1007 54.175 43.1007 53.6572V51.144C43.1007 49.2414 41.2692 47.6935 39.0178 47.6935H34.3411V47.4581L46.3464 44.2413L52.533 50.4281C53.8376 51.7327 55.4317 52.0408 56.7969 51.2523C58.6464 50.1845 59.5145 47.414 58.8162 44.8078C58.8107 44.7868 58.8042 44.7661 58.7972 44.7456ZM2.8125 39.0825V13.7083C2.8125 12.1914 4.04648 10.9574 5.56336 10.9574H46.1648C47.6817 10.9574 48.9157 12.1914 48.9157 13.7083V29.4588C48.5173 29.4184 48.1131 29.4113 47.7063 29.44V13.6158C47.7063 12.8168 47.0563 12.1668 46.2573 12.1668H5.47078C4.6718 12.1668 4.02176 12.8168 4.02176 13.6158V36.5579C4.02176 37.0757 4.44152 37.4954 4.95926 37.4954H22.2743C21.2931 38.6864 20.6829 40.1949 20.5561 41.8335H5.56336C4.04648 41.8335 2.8125 40.5994 2.8125 39.0825ZM24.6444 35.6204H5.89676V14.0417H45.8313V29.8273C44.773 30.1958 43.8148 30.7972 43.0253 31.5917L29.7798 35.1408C28.5237 34.7999 27.2006 34.7978 25.9352 35.1369C25.4818 35.2586 25.0512 35.4218 24.6444 35.6204ZM19.2622 43.7085H20.6213C20.6416 43.8486 20.6647 43.989 20.6921 44.1299L21.3868 47.6935H19.2622V43.7085ZM10.5026 51.144C10.5026 50.29 11.5137 49.5685 12.7105 49.5685H21.7525L22.3668 52.7199H10.5026V51.144ZM41.2256 51.144V52.7197H31.8984L32.7429 49.5683H39.0178C40.2146 49.5683 41.2256 50.29 41.2256 51.144ZM55.8594 49.6284C55.0869 50.0743 54.3451 49.5885 53.8588 49.1022L47.2893 42.5326C47.0524 42.2959 46.7074 42.2033 46.3838 42.2901L32.2204 46.0852C31.8968 46.1719 31.6441 46.4245 31.5574 46.7481L29.1527 55.7222C28.9747 56.3864 28.5754 57.1783 27.6833 57.1783C26.5549 57.1783 25.0723 56.0002 24.5317 54.0266L22.5323 43.771C21.9217 40.6388 23.5932 37.7057 26.4204 36.9481C27.4328 36.6768 28.4941 36.6977 29.4895 37.009C29.6591 37.062 29.8404 37.0657 30.0118 37.0198L43.7636 33.3351C43.9351 33.289 44.0902 33.1952 44.2105 33.0646C44.917 32.2974 45.8256 31.7486 46.838 31.4773C49.6654 30.7199 52.5795 32.424 53.6167 35.4421L57.0129 45.3231C57.5317 47.3025 56.8368 49.0643 55.8594 49.6284ZM51.8509 35.8481C52.0286 36.5109 51.6352 37.1923 50.9722 37.3699C50.3094 37.5476 49.6281 37.1542 49.4504 36.4913C49.2728 35.8283 49.6662 35.1471 50.3291 34.9695C50.9919 34.7919 51.6732 35.1852 51.8509 35.8481ZM46.8143 37.1977C46.992 37.8605 46.5986 38.5418 45.9357 38.7195C45.2729 38.8971 44.5915 38.5037 44.4139 37.8409C44.2363 37.1781 44.6297 36.4967 45.2925 36.3191C45.9553 36.1415 46.6368 36.5349 46.8143 37.1977ZM47.7792 35.5265C47.1164 35.7041 46.4351 35.3107 46.2574 34.6479C46.0798 33.9851 46.4732 33.3038 47.1361 33.1261C47.7989 32.9484 48.4802 33.3419 48.6579 34.0048C48.8354 34.6675 48.442 35.3488 47.7792 35.5265ZM50.0073 39.0411C50.185 39.704 49.7916 40.3853 49.1287 40.5629C48.4659 40.7405 47.7845 40.3472 47.607 39.6843C47.4293 39.0215 47.8227 38.3401 48.4856 38.1625C49.1486 37.9848 49.8298 38.3783 50.0073 39.0411ZM30.4366 41.6176C30.5612 42.0827 30.2828 42.5651 29.8177 42.6898L28.1454 43.1379L28.5935 44.8102C28.7181 45.2752 28.4396 45.7576 27.9745 45.8822C27.5094 46.0068 27.0271 45.7283 26.9025 45.2632L26.4544 43.591L24.7821 44.0391C24.317 44.1636 23.8346 43.8852 23.7101 43.4201C23.5855 42.955 23.8639 42.4726 24.3291 42.3481L26.0013 41.8999L25.5532 40.2277C25.4286 39.7626 25.7071 39.2802 26.1722 39.1555C26.6373 39.031 27.1196 39.3094 27.2443 39.7745L27.6925 41.4468L29.3647 40.9986C29.8297 40.8741 30.3121 41.1525 30.4366 41.6176ZM46.9692 1.93747C46.9459 1.42021 47.3463 0.982042 47.8635 0.958721C50.9863 0.817393 53.8704 1.90595 55.9867 4.02247C58.1032 6.139 59.1912 9.02392 59.0505 12.1458C59.0279 12.6486 58.6131 13.0411 58.1148 13.0411C58.1005 13.0411 58.0862 13.0409 58.0718 13.0402C57.5545 13.0168 57.1541 12.5787 57.1775 12.0614C57.2943 9.47204 56.4005 7.08798 54.6609 5.34833C52.9214 3.60868 50.5365 2.71478 47.948 2.83185C47.4319 2.85587 46.9925 2.45462 46.9692 1.93747ZM46.8333 4.95165C46.81 4.43439 47.2103 3.99622 47.7275 3.9729C50.044 3.86896 52.1864 4.67708 53.7593 6.24997C55.3323 7.82298 56.141 9.96517 56.0365 12.2817C56.0139 12.7846 55.599 13.177 55.1007 13.177C55.0864 13.177 55.0721 13.1768 55.0577 13.1761C54.5405 13.1528 54.14 12.7146 54.1635 12.1974C54.244 10.4132 53.6296 8.77196 52.4336 7.57583C51.2375 6.37993 49.5975 5.76599 47.812 5.84603C47.2961 5.87157 46.8566 5.46892 46.8333 4.95165ZM46.6972 7.96606C46.6739 7.4488 47.0742 7.01064 47.5915 6.9872C49.1038 6.91864 50.5025 7.44833 51.5318 8.47747C52.5611 9.50661 53.0903 10.9061 53.0222 12.4177C52.9996 12.9205 52.5847 13.313 52.0864 13.313C52.0722 13.313 52.0579 13.3127 52.0434 13.312C51.5262 13.2887 51.1257 12.8506 51.1492 12.3333C51.1932 11.3542 50.8584 10.4557 50.2061 9.80333C49.5538 9.15095 48.654 8.81579 47.6762 8.86032C47.1565 8.88423 46.7205 8.48321 46.6972 7.96606Z" fill="#45F882"/>
</g>
<defs>
<clipPath id="clip0_55_91">
<rect width="60" height="60" fill="white"/>
</clipPath>
</defs>
</svg>
