<svg width="24" height="24" viewBox="0 0 24 24" fill="none" xmlns="http://www.w3.org/2000/svg">
<path d="M11.7238 11.8325L3.77869 20.5421C3.58693 20.2137 3.4898 19.8385 3.49804 19.4583V11.9777C3.49804 9.52933 3.49804 7.08095 3.49804 4.64225C3.47584 4.15012 3.62268 3.66521 3.91417 3.26807L11.7238 11.8325Z" fill="#4285F5"/>
<path d="M15.343 7.8648L11.7237 11.8325L3.91406 3.26805C4.22751 2.87353 4.67635 2.60953 5.17347 2.52727C5.6706 2.44501 6.18055 2.55037 6.60437 2.82289C9.38178 4.47772 12.1979 6.06481 15.0043 7.66158L15.343 7.8648Z" fill="#00AE45"/>
<path d="M19.3497 13.7486C18.3335 14.3485 17.3077 14.9292 16.2916 15.5195L15.5077 15.9743L11.7239 11.8324L15.3432 7.86475L19.3497 10.2066C19.6931 10.3581 19.9851 10.6061 20.1901 10.9205C20.3951 11.235 20.5043 11.6022 20.5043 11.9776C20.5043 12.3529 20.3951 12.7202 20.1901 13.0346C19.9851 13.3491 19.6931 13.5971 19.3497 13.7486Z" fill="#FFBB00"/>
<path d="M15.5075 15.9744L6.53661 21.1712C6.13734 21.4394 5.65253 21.5493 5.17664 21.4795C4.70076 21.4097 4.2679 21.1653 3.96243 20.7938C3.89575 20.714 3.83433 20.6299 3.77856 20.5422L11.7237 11.8325L15.5075 15.9744Z" fill="#EB4132"/>
</svg>
