<svg width="24" height="24" viewBox="0 0 24 24" fill="none" xmlns="http://www.w3.org/2000/svg">
<path d="M13.8234 12.2342C13.8072 12.584 13.6923 12.9221 13.4919 13.2092C13.2905 13.5059 13.0004 13.7312 12.6631 13.8527C12.3293 13.9888 11.9618 14.0194 11.6101 13.9405C11.2566 13.8649 10.9338 13.6849 10.6839 13.4237C10.4363 13.1512 10.2736 12.8123 10.2159 12.4487C10.1506 12.0962 10.1948 11.7321 10.3426 11.4055C10.4867 11.0777 10.7241 10.7997 11.0251 10.606C11.3326 10.4154 11.6871 10.3141 12.0489 10.3135C12.5257 10.3396 12.975 10.5451 13.3066 10.8887C13.4783 11.0671 13.6125 11.278 13.7012 11.5091C13.79 11.7402 13.8315 11.9868 13.8234 12.2342Z" fill="url(#paint0_linear_164_84)"/>
<path d="M17.265 8.0026C17.1512 7.72156 16.9821 7.46625 16.7677 7.25186C16.5533 7.03747 16.298 6.86836 16.017 6.7546C15.734 6.64399 15.4336 6.58457 15.1297 6.5791H8.96775C8.35828 6.58167 7.7745 6.82492 7.34353 7.25588C6.91256 7.68685 6.66931 8.27063 6.66675 8.8801V15.1591C6.66718 15.4622 6.72772 15.7621 6.84487 16.0416C6.96202 16.3211 7.13346 16.5746 7.34925 16.7874C7.78005 17.2146 8.36105 17.4561 8.96775 17.4601H15.1297C15.7365 17.4561 16.3174 17.2146 16.7482 16.7874C16.964 16.5746 17.1355 16.3211 17.2526 16.0416C17.3698 15.7621 17.4303 15.4622 17.4307 15.1591V8.88985C17.4286 8.58661 17.3725 8.28617 17.265 8.0026ZM14.8275 13.4431C14.6807 13.8081 14.4619 14.1397 14.184 14.4181C13.9033 14.7006 13.5727 14.9287 13.209 15.0909C12.8413 15.2453 12.4475 15.328 12.0487 15.3346C11.592 15.3436 11.139 15.2508 10.7225 15.0632C10.306 14.8755 9.93649 14.5975 9.64066 14.2494C9.34483 13.9013 9.1301 13.4918 9.01204 13.0505C8.89397 12.6092 8.87551 12.1472 8.958 11.6979C9.07814 11.1003 9.36554 10.5492 9.78675 10.1086C10.2167 9.67764 10.7637 9.38233 11.3599 9.25928C11.9561 9.13622 12.5753 9.19084 13.1407 9.41635C13.7083 9.64557 14.1917 10.0438 14.5252 10.5571C14.8625 11.0519 15.0457 11.6354 15.0517 12.2341C15.066 12.6486 14.9894 13.0613 14.8275 13.4431ZM15.9 8.6266C15.9105 8.70509 15.904 8.78491 15.8811 8.86072C15.8582 8.93652 15.8194 9.00656 15.7673 9.06614C15.7151 9.12571 15.6508 9.17346 15.5787 9.20617C15.5066 9.23888 15.4283 9.2558 15.3491 9.2558C15.2699 9.2558 15.1917 9.23888 15.1196 9.20617C15.0474 9.17346 14.9831 9.12571 14.931 9.06614C14.8788 9.00656 14.84 8.93652 14.8171 8.86072C14.7942 8.78491 14.7878 8.70509 14.7982 8.6266C14.7878 8.54811 14.7942 8.46829 14.8171 8.39248C14.84 8.31668 14.8788 8.24664 14.931 8.18706C14.9831 8.12749 15.0474 8.07974 15.1196 8.04703C15.1917 8.01432 15.2699 7.9974 15.3491 7.9974C15.4283 7.9974 15.5066 8.01432 15.5787 8.04703C15.6508 8.07974 15.7151 8.12749 15.7673 8.18706C15.8194 8.24664 15.8582 8.31668 15.8811 8.39248C15.904 8.46829 15.9105 8.54811 15.9 8.6266Z" fill="url(#paint1_linear_164_84)"/>
<path d="M16.875 2.25H7.125C5.83207 2.25 4.59209 2.76361 3.67785 3.67785C2.76361 4.59209 2.25 5.83207 2.25 7.125V16.875C2.25 18.1679 2.76361 19.4079 3.67785 20.3221C4.59209 21.2364 5.83207 21.75 7.125 21.75H16.875C18.1679 21.75 19.4079 21.2364 20.3221 20.3221C21.2364 19.4079 21.75 18.1679 21.75 16.875V7.125C21.75 5.83207 21.2364 4.59209 20.3221 3.67785C19.4079 2.76361 18.1679 2.25 16.875 2.25ZM18.942 15.0615C18.9512 15.5729 18.8549 16.0807 18.6593 16.5533C18.2637 17.5007 17.5104 18.2539 16.563 18.6495C16.0904 18.8452 15.5826 18.9414 15.0712 18.9323H9.075C8.56368 18.9406 8.05605 18.8444 7.58325 18.6495C7.1146 18.4523 6.68776 18.1678 6.3255 17.811C5.96665 17.4504 5.6818 17.0232 5.487 16.5533C5.28129 16.0828 5.17507 15.5749 5.175 15.0615V9.0165C5.16665 8.50518 5.26287 7.99755 5.45775 7.52475C5.8445 6.57362 6.59073 5.81338 7.5345 5.409C8.02498 5.21821 8.549 5.12866 9.075 5.14575H15.12C15.6268 5.14127 16.1294 5.23816 16.5982 5.43071C17.067 5.62327 17.4926 5.9076 17.85 6.267C18.2068 6.62926 18.4913 7.0561 18.6885 7.52475C18.8834 7.99755 18.9796 8.50518 18.9713 9.0165L18.942 15.0615Z" fill="url(#paint2_linear_164_84)"/>
<defs>
<linearGradient id="paint0_linear_164_84" x1="13.8244" y1="10.3135" x2="10.1549" y2="13.9515" gradientUnits="userSpaceOnUse">
<stop stop-color="#F64F50"/>
<stop offset="1" stop-color="#FF6D42"/>
</linearGradient>
<linearGradient id="paint1_linear_164_84" x1="17.4307" y1="6.5791" x2="6.68773" y2="17.4808" gradientUnits="userSpaceOnUse">
<stop stop-color="#E0437C"/>
<stop offset="1" stop-color="#FFA14B"/>
</linearGradient>
<linearGradient id="paint2_linear_164_84" x1="21.75" y1="1.86071" x2="2.25" y2="21.75" gradientUnits="userSpaceOnUse">
<stop stop-color="#791CC9"/>
<stop offset="0.24887" stop-color="#C938A8"/>
<stop offset="0.546875" stop-color="#FE5340"/>
<stop offset="0.953125" stop-color="#FFD854"/>
</linearGradient>
</defs>
</svg>
