<svg width="75" height="54" viewBox="0 0 75 54" fill="none" xmlns="http://www.w3.org/2000/svg">
<path fill-rule="evenodd" clip-rule="evenodd" d="M59.1674 14.8116C61.8809 10.9795 67.0099 6.85419 73.9924 3.41989C75.807 2.5274 74.9884 -0.238827 72.9853 0.0165825C58.3143 1.88723 48.8053 8.3641 43.6126 17.996C41.6812 21.5783 40.4678 25.3914 39.8217 29.2838C39.3956 31.8502 39.2831 33.7763 39.2831 36.0008C39.2831 45.9415 47.2774 54 57.139 54C67.0006 54 74.9949 45.9415 74.9949 36.0008C74.9949 26.0601 66.873 17.996 57.5396 17.996C58.032 16.6332 58.1503 16.248 59.1674 14.8116ZM19.8843 14.8116C22.5978 10.9795 27.7268 6.85419 34.7093 3.41989C36.5239 2.5274 35.7053 -0.238827 33.7022 0.0165825C19.0313 1.88723 9.52222 8.3641 4.3295 17.996C2.39818 21.5783 1.18478 25.3914 0.538597 29.2838C0.112541 31.8502 0 33.7763 0 36.0008C0 45.9415 7.99438 54 17.8559 54C27.7175 54 35.7119 45.9415 35.7119 36.0008C35.7119 26.0601 27.59 17.996 18.2566 17.996C18.7489 16.6332 18.8672 16.248 19.8843 14.8116Z" fill="#45F882"/>
</svg>
