<svg width="918" height="744" viewBox="0 0 918 744" fill="none" xmlns="http://www.w3.org/2000/svg">
<path d="M918 661.142H0V661.601H918V661.142Z" fill="#45F882"/>
<path d="M826.017 690.663H765.209V691.123H826.017V690.663Z" fill="#45F882"/>
<path d="M501.631 684.921H477.965V685.38H501.631V684.921Z" fill="#45F882"/>
<path d="M641.995 686.865H592.166V687.325H641.995V686.865Z" fill="#45F882"/>
<path d="M763.373 673.637H660.355V674.096H763.373V673.637Z" fill="#45F882"/>
<path d="M145.025 694.865H96.3164V695.324H145.025V694.865Z" fill="#45F882"/>
<path d="M203.593 694.865H161.365V695.324H203.593V694.865Z" fill="#45F882"/>
<path d="M352.163 684.7H240.516V685.16H352.163V684.7Z" fill="#45F882"/>
<path d="M857.522 315.782C863.489 295.086 862.406 274.022 855.704 255.161C860.937 247.675 865.068 239.217 867.748 229.951C880.05 187.348 857.632 142.983 817.185 127.002C809.382 71.1883 769.743 22.42 712.074 5.79696C666.468 -7.34002 619.705 2.53106 584.16 28.5298C575.255 19.2275 563.872 12.0535 550.616 8.2372C510.628 -3.28517 468.859 19.7596 457.329 59.7209C455.401 66.3995 454.465 73.1331 454.391 79.775C414.146 87.8847 379.685 117.516 367.53 159.661C356.606 197.512 366.282 236.428 389.911 264.445C386.863 269.968 384.348 275.894 382.53 282.205C369.44 327.579 395.621 374.953 441.025 388.035C455.989 392.347 471.172 392.365 485.273 388.879C501.962 411.869 526.142 429.703 555.555 438.18C593.432 449.096 632.19 442.308 663.034 422.749C676.841 454.839 688.188 502.984 663.769 550.192C752.521 541.496 816.634 456.417 803.562 378.458C828.88 366.807 849.186 344.661 857.522 315.782Z" fill="#0F1C23"/>
<path d="M687.251 532.578C686.774 532.578 686.297 532.395 685.948 532.046C685.47 531.569 685.287 530.89 685.47 530.23C697.974 486.709 686.572 444.986 674.822 417.648L668.855 403.796L656.113 411.869C636.89 424.07 614.766 430.51 592.165 430.51C581.02 430.51 569.894 428.932 559.08 425.813C533.321 418.382 511.381 402.988 495.628 381.301L490.542 374.292L482.133 376.384C469.795 379.448 456.815 379.21 444.532 375.668C425.878 370.293 410.438 357.981 401.037 340.991C391.655 324.001 389.452 304.388 394.832 285.728C396.337 280.517 398.448 275.435 401.111 270.628L405.389 262.885L399.679 256.133C377.904 230.318 370.468 195.567 379.813 163.183C390.278 126.947 419.801 99.792 456.87 92.3245L467.06 90.2696L467.17 79.8664C467.225 74.2153 468.051 68.6193 469.612 63.225C477.286 36.6208 501.981 18.0529 529.631 18.0529C535.469 18.0529 541.308 18.8786 546.981 20.5115C557.575 23.5756 567.195 29.3918 574.796 37.3364L582.581 45.4828L591.669 38.8409C614.656 22.0344 642.875 12.7871 671.131 12.7871C683.689 12.7871 696.229 14.5668 708.42 18.0896C759.369 32.7678 797.026 76.1969 804.37 128.726L805.398 136.139L812.375 138.891C847.259 152.67 865.729 190.265 855.319 226.336C853.097 234.006 849.664 241.198 845.092 247.748L841.31 253.161L843.513 259.399C849.59 276.481 850.123 294.737 845.092 312.167C838.115 336.313 820.986 356.202 798.091 366.733L789.168 370.843L790.783 380.531C796.365 413.795 786.34 450.124 763.28 480.214C744.076 505.277 717.233 523.826 687.674 532.45C687.6 532.56 687.417 532.578 687.251 532.578ZM669.717 399.282C669.901 399.282 670.085 399.3 670.268 399.355C670.782 399.521 671.205 399.888 671.407 400.383L678.218 416.217C689.932 443.427 701.26 484.636 689.913 528.01C717.472 519.221 742.423 501.571 760.471 478.03C782.907 448.748 792.674 413.447 787.277 381.191L785.422 370.127C785.294 369.302 785.716 368.513 786.469 368.164L796.677 363.467C818.617 353.376 835.013 334.331 841.696 311.213C846.506 294.516 845.992 277.049 840.172 260.683L837.638 253.564C837.436 253.014 837.528 252.39 837.858 251.895L842.191 245.693C846.543 239.473 849.811 232.63 851.904 225.364C861.781 191.127 844.266 155.441 811.145 142.359L803.176 139.221C802.57 138.983 802.13 138.432 802.038 137.772L800.845 129.295C793.703 78.1968 757.074 35.9419 707.521 21.6674C695.66 18.2547 683.451 16.5117 671.241 16.5117C643.738 16.5117 616.29 25.5204 593.946 41.8499L583.554 49.4459C582.801 49.9963 581.773 49.9046 581.149 49.2257L572.244 39.9234C565.084 32.4375 556.032 26.9699 546.063 24.0893C540.72 22.5481 535.23 21.7591 529.722 21.7591C503.688 21.7591 480.444 39.2445 473.229 64.2892C471.76 69.3715 470.989 74.6373 470.934 79.9398L470.805 91.8108C470.787 92.6731 470.181 93.4254 469.336 93.5905L457.678 95.939C421.949 103.131 393.51 129.295 383.43 164.211C374.434 195.42 381.576 228.887 402.579 253.766L409.097 261.491C409.593 262.078 409.666 262.903 409.299 263.564L404.397 272.407C401.863 276.976 399.862 281.802 398.43 286.755C393.326 304.461 395.419 323.084 404.324 339.212C413.247 355.339 427.898 367.027 445.615 372.146C457.274 375.503 469.593 375.724 481.307 372.825L490.928 370.439C491.644 370.256 492.415 370.531 492.856 371.137L498.676 379.155C513.933 400.181 535.194 415.098 560.163 422.29C570.647 425.317 581.443 426.84 592.238 426.84C614.142 426.84 635.568 420.584 654.222 408.768L668.781 399.539C669.02 399.374 669.369 399.282 669.717 399.282Z" fill="black"/>
<path d="M558.494 227.75L509.289 220.099L510.06 215.181C511.364 206.815 513.365 200.173 516.082 195.238C518.799 190.32 522.361 185.99 526.786 182.247C531.211 178.523 540.832 172.248 555.648 163.404C563.524 158.799 567.839 154.12 568.573 149.387C569.308 144.634 568.482 140.726 566.095 137.662C563.69 134.598 559.65 132.617 553.959 131.736C547.827 130.782 542.447 132.03 537.802 135.442C533.157 138.873 529.485 145.552 526.786 155.478L477.508 141.442C482.116 123.241 491.131 109.425 504.589 99.9944C518.047 90.5454 536.847 87.7198 561.027 91.4811C579.846 94.4167 594.424 100.71 604.779 110.343C618.843 123.406 624.498 138.782 621.744 156.45C620.606 163.79 617.466 170.541 612.344 176.725C607.221 182.908 597.637 189.953 583.592 197.825C573.788 203.366 567.435 208.063 564.497 211.879C561.542 215.732 559.54 221.016 558.494 227.75ZM505.562 232.905L558.273 241.107L551.04 287.563L498.328 279.362L505.562 232.905Z" fill="white" fill-opacity="0.03"/>
<path d="M684.078 299.728L656.759 277.619L658.98 274.885C662.744 270.243 666.324 266.885 669.739 264.849C673.136 262.812 676.863 261.436 680.884 260.72C684.905 260.005 693.02 259.583 705.192 259.454C711.637 259.436 715.933 258.115 718.063 255.473C720.193 252.831 721.074 250.152 720.707 247.437C720.339 244.721 718.559 242.079 715.401 239.511C712.004 236.758 708.277 235.602 704.219 236.043C700.162 236.483 695.553 239.254 690.394 244.373L665.296 218.337C674.568 208.87 684.978 203.622 696.545 202.632C708.112 201.641 720.597 206.576 734.018 217.438C744.465 225.896 751.129 234.905 754.03 244.464C757.977 257.418 755.976 268.812 748.008 278.628C744.703 282.701 740.389 285.71 735.083 287.673C729.758 289.636 721.404 290.536 710.04 290.37C702.09 290.279 696.545 290.884 693.387 292.187C690.211 293.49 687.108 296.003 684.078 299.728ZM649.947 284.114L679.213 307.801L658.301 333.598L629.035 309.911L649.947 284.114Z" fill="white" fill-opacity="0.03"/>
<path d="M691.715 140.799L679.891 124.653L681.507 123.479C684.261 121.461 686.721 120.14 688.887 119.516C691.054 118.892 693.294 118.672 695.625 118.855C697.939 119.057 702.474 119.993 709.193 121.681C712.737 122.598 715.289 122.507 716.85 121.351C718.41 120.213 719.273 118.855 719.475 117.314C719.659 115.755 719.071 114.048 717.713 112.177C716.244 110.159 714.353 108.984 712.058 108.654C709.763 108.306 706.825 109.168 703.245 111.223L693.202 93.2604C699.683 89.389 706.164 88.0129 712.682 89.1505C719.2 90.288 725.35 94.8016 731.152 102.728C735.669 108.893 738.037 114.819 738.239 120.507C738.533 128.213 735.779 134.194 729.959 138.432C727.553 140.194 724.744 141.221 721.531 141.533C718.318 141.845 713.6 141.13 707.357 139.387C702.988 138.194 699.848 137.717 697.92 137.974C695.993 138.249 693.936 139.185 691.715 140.799ZM675.191 127.259L687.859 144.542L672.602 155.716L659.934 138.432L675.191 127.259Z" fill="white" fill-opacity="0.03"/>
<g opacity="0.3">
<path d="M235.635 369.725C220.451 369.725 205.176 365.578 191.644 357.505C173.009 346.405 159.845 329.213 155.383 310.186C140.255 309.104 126.32 301.673 117.029 289.71C110.291 281.05 106.454 270.738 105.885 259.803C101.901 257.088 98.3757 253.785 95.4013 249.987C80.9153 231.364 82.7329 205.219 99.5323 188.816C92.5372 158.982 103.572 127.7 127.788 108.893C146.791 94.1416 170.989 88.9492 194.38 94.5819C197.097 88.3804 201.339 82.9495 206.7 78.7845C215.311 72.0876 226.033 69.152 236.865 70.5097C247.698 71.8674 257.355 77.3534 264.038 85.9768C266.058 88.5639 267.747 91.4078 269.105 94.4168C291.192 90.8023 313.316 99.4257 327.068 117.131C339.369 132.947 343.078 153.68 337.056 172.78C339.461 174.835 341.646 177.11 343.555 179.569C359.179 199.659 355.544 228.722 335.422 244.336C329.289 249.107 322.019 252.244 314.344 253.473C310.342 268.445 301.768 281.38 289.485 290.903C273.989 302.939 254.142 307.966 234.79 304.81C234.589 322.626 238.738 346.79 258.695 364.073C259.099 364.422 259.264 364.954 259.154 365.468C259.044 365.982 258.658 366.404 258.144 366.55C250.837 368.679 243.236 369.725 235.635 369.725ZM175.763 95.2608C159.184 95.2608 143.009 100.728 129.533 111.187C105.995 129.479 95.383 160.01 102.507 188.963C102.635 189.458 102.47 189.99 102.103 190.357C85.8358 205.696 83.9263 230.575 97.6596 248.244C100.579 252.005 104.086 255.235 108.051 257.84C108.437 258.097 108.676 258.519 108.694 258.996C109.098 269.583 112.77 279.6 119.269 287.985C128.284 299.581 141.889 306.663 156.595 307.416C157.238 307.452 157.789 307.911 157.935 308.553C161.993 327.213 174.808 344.166 193.113 355.065C211.987 366.312 234.331 369.688 254.858 364.495C235.158 346.074 231.486 321.085 231.963 303.086C231.981 302.664 232.165 302.26 232.495 302.003C232.826 301.746 233.248 301.636 233.671 301.709C252.747 305.287 272.447 300.535 287.741 288.664C299.748 279.325 308.084 266.61 311.811 251.859C311.958 251.29 312.435 250.868 313.004 250.795C320.513 249.767 327.655 246.758 333.659 242.098C352.515 227.456 355.93 200.21 341.278 181.367C339.296 178.816 337.001 176.468 334.467 174.395C334.008 174.009 333.824 173.385 334.008 172.835C340.14 154.396 336.688 134.25 324.773 118.929C311.443 101.793 289.87 93.5728 268.463 97.4809C267.783 97.6093 267.122 97.2424 266.865 96.6185C265.562 93.4444 263.836 90.472 261.743 87.7749C255.519 79.7753 246.541 74.6563 236.48 73.4086C226.418 72.1427 216.449 74.8765 208.444 81.0963C203.156 85.2062 199.025 90.6555 196.528 96.857C196.253 97.5359 195.518 97.8845 194.839 97.7194C188.505 96.0681 182.097 95.2608 175.763 95.2608Z" fill="#45F882"/>
</g>
<path d="M184.685 216.319L159.33 222.282L158.724 219.75C157.714 215.439 157.365 211.824 157.714 208.907C158.063 205.99 158.944 203.182 160.358 200.504C161.771 197.825 165.205 192.889 170.639 185.697C173.559 181.917 174.715 178.798 174.146 176.358C173.577 173.918 172.402 172.175 170.639 171.166C168.877 170.156 166.527 169.991 163.589 170.67C160.431 171.422 158.063 173.074 156.484 175.642C154.905 178.211 154.446 182.174 155.088 187.513L128.448 190.412C127.089 180.688 128.742 172.211 133.405 165.001C138.069 157.772 146.624 152.708 159.091 149.772C168.785 147.497 177.102 147.68 184.005 150.323C193.387 153.882 199.152 160.23 201.301 169.331C202.2 173.11 201.998 177 200.75 181C199.483 185 196.233 190.302 190.964 196.889C187.31 201.513 185.144 205.035 184.483 207.457C183.803 209.898 183.877 212.852 184.685 216.319ZM160.046 229.218L187.2 222.833L192.837 246.777L165.682 253.162L160.046 229.218Z" fill="#6240CF"/>
<path d="M249.239 162.799L231.632 157.459L232.164 155.698C233.082 152.707 234.147 150.377 235.396 148.726C236.644 147.056 238.168 145.662 239.986 144.524C241.803 143.387 245.641 141.589 251.516 139.13C254.637 137.846 256.455 136.36 256.969 134.672C257.483 132.984 257.391 131.497 256.675 130.25C255.959 129.002 254.582 128.066 252.544 127.443C250.359 126.782 248.321 126.947 246.448 127.956C244.576 128.965 242.887 131.222 241.381 134.708L224.086 127.021C226.711 120.599 230.732 116.012 236.13 113.26C241.546 110.508 248.56 110.434 257.207 113.058C263.945 115.095 268.939 118.159 272.226 122.232C276.687 127.736 277.954 133.644 276.045 139.974C275.255 142.598 273.75 144.91 271.565 146.91C269.38 148.909 265.506 150.983 259.961 153.148C256.087 154.671 253.517 156.047 252.25 157.294C250.983 158.56 249.974 160.395 249.239 162.799ZM229.631 161.936L248.486 167.661L243.437 184.284L224.582 178.559L229.631 161.936Z" fill="#6240CF"/>
<path d="M459.004 744C655.607 744 814.986 734.701 814.986 723.23C814.986 711.76 655.607 702.461 459.004 702.461C262.4 702.461 103.021 711.76 103.021 723.23C103.021 734.701 262.4 744 459.004 744Z" fill="#0F1C23"/>
<path d="M289.377 413.52L287.688 412.805C289.212 409.227 290.075 406.236 290.35 403.704L292.168 403.906C291.893 406.622 290.975 409.759 289.377 413.52ZM288.661 392.494C285.099 384.678 278.471 379.742 269.512 378.238L269.824 376.421C279.426 378.036 286.513 383.338 290.332 391.742L288.661 392.494Z" fill="#FFBE18"/>
<path d="M279.039 431.978L260.972 440.198L260.146 438.4C258.751 435.336 257.961 432.676 257.778 430.437C257.594 428.199 257.851 425.979 258.494 423.777C259.155 421.575 260.972 417.374 263.984 411.19C265.599 407.924 266.003 405.429 265.214 403.686C264.424 401.943 263.286 400.824 261.817 400.329C260.348 399.833 258.567 400.053 256.474 401.007C254.216 402.035 252.71 403.631 251.903 405.778C251.113 407.943 251.352 410.97 252.619 414.86L233.175 420.951C230.715 413.888 230.697 407.319 233.12 401.228C235.526 395.136 241.18 390.072 250.048 386.036C256.952 382.898 263.194 381.797 268.757 382.751C276.303 384.017 281.554 387.907 284.51 394.402C285.74 397.099 286.181 400.035 285.832 403.209C285.483 406.383 283.831 410.823 280.875 416.53C278.837 420.511 277.735 423.465 277.588 425.392C277.423 427.3 277.919 429.501 279.039 431.978ZM262.551 445.262L281.903 436.455L289.669 453.5L270.318 462.307L262.551 445.262Z" fill="#FFBE18"/>
<path d="M234.35 472.765L225.152 485.223L223.903 484.306C221.774 482.746 220.231 481.242 219.258 479.774C218.285 478.325 217.606 476.71 217.22 474.949C216.835 473.187 216.486 469.628 216.174 464.289C216.027 461.445 215.366 459.592 214.154 458.711C212.943 457.83 211.749 457.5 210.556 457.702C209.362 457.922 208.242 458.748 207.177 460.197C206.039 461.757 205.599 463.408 205.874 465.188C206.149 466.967 207.471 468.931 209.821 471.096L198.86 482.673C194.491 478.783 191.975 474.306 191.314 469.243C190.635 464.179 192.563 458.583 197.079 452.454C200.586 447.684 204.423 444.565 208.573 443.097C214.191 441.097 219.258 441.758 223.738 445.06C225.593 446.436 227.006 448.271 227.979 450.565C228.952 452.858 229.522 456.528 229.668 461.518C229.797 465.023 230.164 467.444 230.807 468.802C231.468 470.197 232.643 471.518 234.35 472.765ZM228.163 488.104L238.004 474.747L249.791 483.425L239.95 496.782L228.163 488.104Z" fill="#FFBE18"/>
<path d="M429.793 716.626C426.819 716.626 423.936 715.011 422.468 712.185C415.087 697.948 405.815 681.233 389.144 663.142C387.198 661.032 386.482 658.041 387.29 655.289C393.477 633.804 403.208 604.429 403.3 604.136C404.732 599.824 409.395 597.475 413.71 598.906C418.024 600.338 420.374 604.998 418.942 609.31C418.851 609.585 410.478 634.886 404.401 655.473C419.732 672.848 429.187 689.342 437.119 704.626C439.212 708.663 437.633 713.635 433.594 715.708C432.364 716.314 431.06 716.626 429.793 716.626Z" fill="#45F882"/>
<path d="M443.507 723.231H379.633L413.489 704.039L441.855 705.14L443.507 723.231Z" fill="#6240CF"/>
<path d="M437.389 645.961C466.464 636.88 483.927 609.996 476.396 585.912C468.864 561.829 439.189 549.666 410.115 558.746C381.04 567.827 363.576 594.711 371.108 618.795C378.64 642.878 408.315 655.041 437.389 645.961Z" fill="#6240CF"/>
<path d="M278.433 572.302C275.202 572.302 272.136 570.394 270.814 567.22C269.07 563.018 271.071 558.211 275.275 556.468C280.067 554.486 280.728 549.606 280.728 549.551C281.077 545.881 283.831 542.872 287.466 542.212C289.431 541.863 291.322 541.294 293.525 540.671C304.688 537.405 318.495 533.368 362.026 545.551C404.952 521.552 405.448 476.564 405.448 474.619C405.448 470.087 409.12 466.381 413.655 466.381C413.655 466.381 413.673 466.381 413.691 466.381C418.208 466.381 421.898 470.013 421.917 474.545C421.935 476.931 421.66 533.405 366.763 561.697C364.89 562.67 362.724 562.871 360.704 562.284C319.229 550.303 307.534 553.716 298.152 556.468C297.326 556.706 296.481 556.963 295.618 557.202C293.58 562.431 289.357 568.467 281.591 571.678C280.563 572.1 279.498 572.302 278.433 572.302Z" fill="#6240CF"/>
<path d="M374.695 513.424C359.071 451.354 317.449 291.307 450.834 281.527C570.504 272.757 603.35 431.924 611.319 487.077C615.964 519.222 617.543 548.359 617.8 571.146C618.149 600.521 597.494 625.859 568.668 631.712C503.472 644.941 441.764 646.831 400.215 630.428C388.979 625.988 382.186 614.557 383.269 602.539C384.885 584.705 384.922 554.046 374.695 513.424Z" fill="#45F882"/>
<path opacity="0.1" d="M611.317 487.059C603.79 435.098 574.193 290.664 470.569 281.637C458.507 280.592 446.61 286.518 441.065 297.27C436.438 306.223 436.585 317.067 443.507 327.8C466.347 363.175 520.821 485.499 512.595 552.156C508.85 582.485 489.811 606.704 506.371 640.794C526.365 639.143 547.333 636.042 568.685 631.694C597.51 625.859 618.165 600.521 617.817 571.128C617.541 548.358 615.981 519.204 611.317 487.059Z" fill="#6240CF"/>
<path d="M593.472 571.954C593.013 571.954 592.646 571.587 592.646 571.146C592.315 542.799 590.13 514.544 586.165 487.187C566.336 350.221 512.945 280.94 431.757 286.922C431.316 286.977 430.912 286.61 430.876 286.169C430.839 285.711 431.188 285.325 431.628 285.289C513.789 279.234 567.805 348.992 587.78 486.967C591.746 514.397 593.931 542.726 594.28 571.146C594.298 571.568 593.931 571.954 593.472 571.954Z" fill="#6240CF"/>
<path d="M592.204 650.358C621.278 641.277 638.742 614.393 631.21 590.309C623.679 566.226 594.004 554.063 564.929 563.143C535.855 572.224 518.391 599.108 525.922 623.192C533.454 647.275 563.129 659.438 592.204 650.358Z" fill="#6240CF"/>
<path d="M597.254 716.626C594.28 716.626 591.397 715.011 589.928 712.185C582.548 697.948 573.276 681.233 556.605 663.142C554.659 661.032 553.943 658.041 554.751 655.289C560.938 633.804 570.669 604.429 570.761 604.136C572.193 599.824 576.838 597.475 581.171 598.906C585.485 600.338 587.835 604.998 586.403 609.31C586.312 609.585 577.939 634.886 571.862 655.473C587.193 672.848 596.648 689.342 604.58 704.626C606.673 708.663 605.094 713.635 601.055 715.708C599.806 716.314 598.521 716.626 597.254 716.626Z" fill="#45F882"/>
<path d="M579.96 465.757C577.004 465.757 574.14 464.161 572.653 461.353C570.541 457.335 572.083 452.363 576.104 450.253C577.683 449.409 613.54 429.832 623.62 382.788C599.715 372.789 556.753 350.24 547.353 338.901C546.435 337.8 545.829 336.479 545.59 335.084C545.37 333.855 543.827 324.112 547.426 314.902L543.093 306.535C541 302.499 542.579 297.527 546.618 295.435C550.657 293.343 555.633 294.921 557.726 298.958L563.968 310.994C565.309 313.562 565.18 316.645 563.656 319.122C561.692 322.296 561.435 326.938 561.6 329.965C572.175 339.524 614.917 362.147 635.829 369.908C639.501 371.266 641.705 375.027 641.099 378.88C631.79 439.006 585.762 463.775 583.797 464.803C582.549 465.445 581.245 465.757 579.96 465.757Z" fill="#6240CF"/>
<path d="M553.687 337.763C552.916 337.763 552.127 337.543 551.429 337.084C549.519 335.836 548.987 333.286 550.235 331.396C550.511 330.956 557.322 320.7 567.677 317.929C569.862 317.342 572.139 318.645 572.726 320.846C573.314 323.048 572.01 325.305 569.807 325.892C562.573 327.837 557.176 335.836 557.12 335.91C556.349 337.102 555.027 337.763 553.687 337.763Z" fill="#6240CF"/>
<path d="M610.968 723.231H547.094L580.95 704.039L609.316 705.14L610.968 723.231Z" fill="#6240CF"/>
<path d="M477.217 477.394C501.377 475.256 519.402 455.906 517.476 434.174C515.551 412.443 494.404 396.559 470.244 398.696C446.084 400.834 428.059 420.184 429.985 441.916C431.91 463.648 453.057 479.532 477.217 477.394Z" fill="white"/>
<path d="M469.001 463.031C475.408 461.207 477.908 450.28 474.585 438.625C471.262 426.97 463.374 419 456.968 420.824C450.561 422.648 448.061 433.576 451.384 445.231C454.707 456.886 462.594 464.855 469.001 463.031Z" fill="#6240CF"/>
<path d="M423.755 445.483C451.478 441.923 506.393 426.273 515.445 419.961C508.302 399.118 475.126 381.284 445.438 391.32C418.669 400.384 423.755 445.483 423.755 445.483Z" fill="#6240CF"/>
<path d="M429.135 458.877C463.541 452.345 508.285 441.373 521.082 434.327C520.292 456.767 513.774 479.499 478.633 487.169C449.937 493.462 429.135 458.877 429.135 458.877Z" fill="#6240CF"/>
<path d="M400.79 480.442C413.238 472.211 414.879 452.775 404.455 437.031C394.031 421.287 375.49 415.196 363.042 423.426C350.593 431.657 348.952 451.093 359.376 466.837C369.8 482.581 388.342 488.672 400.79 480.442Z" fill="white"/>
<path d="M382.516 452.492C384.609 462.326 382.81 470.527 378.495 470.803C374.181 471.096 368.985 463.353 366.91 453.519C364.817 443.685 366.616 435.483 370.931 435.208C375.227 434.933 380.423 442.657 382.516 452.492Z" fill="#6240CF"/>
<path d="M348.386 448.73C366.985 450.932 403.925 448.473 410.057 445.116C405.522 427.318 383.527 407.191 363.533 409.76C345.503 412.09 348.386 448.73 348.386 448.73Z" fill="#6240CF"/>
<path d="M351.838 460.308C374.953 461.354 405.027 460.767 413.674 457.519C412.885 475.151 408.258 491.958 384.647 491.683C365.351 491.462 351.838 460.308 351.838 460.308Z" fill="#6240CF"/>
<path d="M484.874 380.238C450.192 380.238 427.15 363.12 426.012 362.257C422.395 359.505 421.679 354.35 424.433 350.717C427.168 347.102 432.327 346.387 435.944 349.12C436.348 349.414 463.723 369.376 501.747 362.166C506.226 361.322 510.523 364.257 511.367 368.716C512.212 373.174 509.274 377.486 504.813 378.33C497.818 379.669 491.153 380.238 484.874 380.238Z" fill="#6240CF"/>
<path d="M337.607 366.055C336.689 366.055 335.734 365.89 334.816 365.578C330.538 364.037 328.317 359.322 329.859 355.047C334.229 342.9 341.462 335.011 351.377 331.616C369.351 325.433 388.703 337.451 389.511 337.965C393.348 340.387 394.504 345.469 392.081 349.322C389.657 353.157 384.59 354.313 380.734 351.891C376.989 349.561 365.367 344.166 356.683 347.194C351.689 348.937 347.98 353.322 345.355 360.606C344.143 363.964 340.985 366.055 337.607 366.055Z" fill="#6240CF"/>
<path d="M402.51 504.911C402.29 504.911 402.051 504.874 401.831 504.819C400.527 504.434 399.775 503.113 400.142 501.81C400.197 501.59 401.757 496.251 408.514 492.765C417.969 487.902 432.364 488.912 451.311 495.755C452.596 496.214 453.257 497.645 452.798 498.911C452.339 500.195 450.926 500.856 449.64 500.397C427.92 492.526 416.629 494.232 410.993 497.04C406.072 499.498 404.952 503.003 404.897 503.149C404.567 504.214 403.575 504.911 402.51 504.911Z" fill="#6240CF"/>
<path d="M324.754 495.866C276.834 500.159 242.52 519.993 242.52 519.993C256.712 517.314 307.44 580.045 320.476 628.41C344.528 619.493 372.582 613.42 402.509 608.686C384.387 558.835 351.247 502.342 324.754 495.866Z" fill="#45F882"/>
<path opacity="0.6" d="M324.754 495.866C276.834 500.159 242.52 519.993 242.52 519.993C256.712 517.314 307.44 580.045 320.476 628.41C344.528 619.493 372.582 613.42 402.509 608.686C384.387 558.835 351.247 502.342 324.754 495.866Z" fill="white"/>
<path d="M324.757 495.866C293.398 492.324 242.486 518.562 242.486 518.562C233.471 524.305 235.913 535.093 240.833 539.643C245.552 532.873 298.172 515.259 317.964 512.892C308.123 503.792 317.266 497.187 324.757 495.866Z" fill="#45F882"/>
<path opacity="0.2" d="M324.757 495.866C293.398 492.324 242.486 518.562 242.486 518.562C233.471 524.305 235.913 535.093 240.833 539.643C245.552 532.873 298.172 515.259 317.964 512.892C308.123 503.792 317.266 497.187 324.757 495.866Z" fill="white"/>
<path d="M278.451 572.302C275.752 572.302 273.127 570.981 271.548 568.559C265.581 559.422 269.308 545.46 270.116 542.762C271.419 538.414 276.009 535.937 280.361 537.24C284.712 538.542 287.191 543.111 285.905 547.459C284.565 552.065 284.29 557.954 285.355 559.569C287.833 563.367 286.768 568.468 282.949 570.963C281.554 571.88 279.993 572.302 278.451 572.302Z" fill="#6240CF"/>
<path d="M250.302 212.613H222.523V200.082L250.302 167.074H263.595V200.797H270.48V212.632H263.595V222.888H250.302V212.613ZM250.302 200.797V183.532L235.614 200.797H250.302Z" fill="#45F882"/>
<path d="M275.234 195.22C275.234 184.798 277.107 177.496 280.871 173.331C284.635 169.166 290.345 167.074 298.037 167.074C301.728 167.074 304.757 167.533 307.144 168.432C309.512 169.349 311.459 170.524 312.946 171.991C314.451 173.459 315.626 174.982 316.489 176.597C317.352 178.211 318.05 180.083 318.564 182.229C319.592 186.321 320.106 190.578 320.106 195.036C320.106 204.981 318.417 212.283 315.057 216.888C311.679 221.512 305.877 223.805 297.652 223.805C293.025 223.805 289.298 223.071 286.452 221.604C283.607 220.136 281.275 217.971 279.457 215.127C278.135 213.109 277.107 210.338 276.373 206.834C275.602 203.329 275.234 199.458 275.234 195.22ZM290.363 195.256C290.363 202.247 290.987 207.017 292.217 209.568C293.447 212.118 295.247 213.402 297.597 213.402C299.139 213.402 300.479 212.852 301.618 211.769C302.756 210.687 303.582 208.962 304.133 206.632C304.665 204.283 304.941 200.632 304.941 195.66C304.941 188.376 304.317 183.477 303.086 180.963C301.856 178.45 300.002 177.202 297.523 177.202C295.008 177.202 293.172 178.487 292.052 181.037C290.932 183.606 290.363 188.339 290.363 195.256Z" fill="#45F882"/>
<path d="M326.387 195.22C326.387 184.798 328.259 177.496 332.023 173.331C335.787 169.166 341.497 167.074 349.19 167.074C352.88 167.074 355.91 167.533 358.296 168.432C360.665 169.349 362.611 170.524 364.098 171.991C365.604 173.459 366.779 174.982 367.642 176.597C368.505 178.211 369.202 180.083 369.716 182.229C370.744 186.321 371.259 190.578 371.259 195.036C371.259 204.981 369.569 212.283 366.21 216.888C362.831 221.512 357.03 223.805 348.804 223.805C344.178 223.805 340.45 223.071 337.605 221.604C334.759 220.136 332.427 217.971 330.61 215.127C329.288 213.109 328.259 210.338 327.525 206.834C326.754 203.329 326.387 199.458 326.387 195.22ZM341.515 195.256C341.515 202.247 342.14 207.017 343.37 209.568C344.6 212.118 346.399 213.402 348.749 213.402C350.291 213.402 351.632 212.852 352.77 211.769C353.908 210.687 354.735 208.962 355.285 206.632C355.818 204.283 356.093 200.632 356.093 195.66C356.093 188.376 355.469 183.477 354.239 180.963C353.009 178.45 351.154 177.202 348.676 177.202C346.16 177.202 344.324 178.487 343.204 181.037C342.084 183.606 341.515 188.339 341.515 195.256Z" fill="#45F882"/>
<path d="M405.555 168.01H451.014V179.716H422.556V188.431H448.958V199.623H422.556V210.43H451.84V222.851H405.555V168.01Z" fill="white"/>
<path d="M461.203 222.87V168.01H489.478C494.729 168.01 498.731 168.45 501.503 169.349C504.276 170.248 506.516 171.918 508.205 174.34C509.894 176.78 510.757 179.734 510.757 183.22C510.757 186.266 510.114 188.89 508.811 191.091C507.507 193.293 505.726 195.091 503.449 196.467C501.999 197.348 500.016 198.064 497.501 198.632C499.52 199.311 500.989 199.99 501.907 200.651C502.531 201.109 503.431 202.063 504.625 203.531C505.818 204.999 506.607 206.137 506.993 206.944L515.2 222.833H496.032L486.962 206.063C485.806 203.898 484.796 202.485 483.896 201.843C482.666 200.999 481.289 200.577 479.747 200.577H478.241V222.851H461.203V222.87ZM478.241 190.247H485.402C486.173 190.247 487.678 189.991 489.9 189.495C491.02 189.275 491.938 188.706 492.654 187.771C493.37 186.853 493.719 185.789 493.719 184.596C493.719 182.835 493.15 181.459 492.03 180.523C490.91 179.569 488.798 179.092 485.695 179.092H478.241V190.247Z" fill="white"/>
<path d="M520.855 222.87V168.01H549.13C554.381 168.01 558.383 168.45 561.156 169.349C563.928 170.248 566.168 171.918 567.857 174.34C569.546 176.78 570.409 179.734 570.409 183.22C570.409 186.266 569.766 188.89 568.463 191.091C567.159 193.293 565.378 195.091 563.102 196.467C561.651 197.348 559.668 198.064 557.153 198.632C559.173 199.311 560.642 199.99 561.56 200.651C562.184 201.109 563.083 202.063 564.277 203.531C565.47 204.999 566.26 206.137 566.645 206.944L574.852 222.833H555.684L546.615 206.063C545.458 203.898 544.448 202.485 543.548 201.843C542.318 200.999 540.941 200.577 539.399 200.577H537.894V222.851H520.855V222.87ZM537.894 190.247H545.054C545.825 190.247 547.331 189.991 549.552 189.495C550.672 189.275 551.59 188.706 552.306 187.771C553.022 186.853 553.371 185.789 553.371 184.596C553.371 182.835 552.802 181.459 551.682 180.523C550.562 179.569 548.451 179.092 545.348 179.092H537.894V190.247Z" fill="white"/>
<path d="M576.836 195.477C576.836 186.523 579.333 179.551 584.327 174.56C589.321 169.569 596.279 167.074 605.184 167.074C614.327 167.074 621.359 169.533 626.298 174.432C631.237 179.33 633.715 186.211 633.715 195.036C633.715 201.44 632.632 206.705 630.484 210.815C628.317 214.925 625.196 218.118 621.12 220.393C617.044 222.668 611.959 223.824 605.863 223.824C599.676 223.824 594.553 222.833 590.496 220.87C586.438 218.907 583.152 215.787 580.636 211.512C578.103 207.237 576.836 201.898 576.836 195.477ZM593.801 195.55C593.801 201.091 594.829 205.072 596.885 207.494C598.941 209.916 601.75 211.127 605.294 211.127C608.948 211.127 611.757 209.935 613.758 207.568C615.759 205.201 616.751 200.944 616.751 194.798C616.751 189.642 615.704 185.862 613.629 183.477C611.536 181.092 608.709 179.899 605.147 179.899C601.732 179.899 598.978 181.11 596.903 183.532C594.847 185.954 593.801 189.972 593.801 195.55Z" fill="white"/>
<path d="M643.096 222.87V168.01H671.37C676.621 168.01 680.624 168.45 683.396 169.349C686.168 170.248 688.408 171.918 690.097 174.34C691.786 176.78 692.649 179.734 692.649 183.22C692.649 186.266 692.007 188.89 690.703 191.091C689.4 193.293 687.619 195.091 685.342 196.467C683.892 197.348 681.909 198.064 679.393 198.632C681.413 199.311 682.882 199.99 683.8 200.651C684.424 201.109 685.324 202.063 686.517 203.531C687.711 204.999 688.5 206.137 688.886 206.944L697.092 222.833H677.925L668.855 206.063C667.698 203.898 666.688 202.485 665.789 201.843C664.559 200.999 663.182 200.577 661.639 200.577H660.134V222.851H643.096V222.87ZM660.134 190.247H667.294C668.065 190.247 669.571 189.991 671.792 189.495C672.912 189.275 673.83 188.706 674.546 187.771C675.262 186.853 675.611 185.789 675.611 184.596C675.611 182.835 675.042 181.459 673.922 180.523C672.802 179.569 670.691 179.092 667.588 179.092H660.134V190.247Z" fill="white"/>
<path d="M368.938 137.534V96.6553H384.286C387.408 96.6553 389.923 97.0773 391.814 97.9029C393.705 98.7286 395.174 99.9946 396.257 101.719C397.322 103.444 397.855 105.242 397.855 107.113C397.855 108.857 397.377 110.508 396.422 112.049C395.468 113.59 394.036 114.838 392.126 115.792C394.605 116.526 396.496 117.755 397.836 119.498C399.158 121.241 399.837 123.315 399.837 125.681C399.837 127.59 399.433 129.369 398.626 131.021C397.818 132.672 396.808 133.938 395.633 134.819C394.44 135.718 392.952 136.378 391.153 136.837C389.354 137.295 387.151 137.516 384.562 137.516H368.938V137.534ZM374.354 113.829H383.203C385.608 113.829 387.316 113.664 388.362 113.352C389.739 112.948 390.768 112.269 391.465 111.315C392.163 110.361 392.512 109.168 392.512 107.737C392.512 106.38 392.181 105.187 391.539 104.16C390.896 103.132 389.96 102.416 388.748 102.031C387.536 101.646 385.462 101.462 382.524 101.462H374.354V113.829ZM374.354 132.709H384.544C386.288 132.709 387.518 132.635 388.234 132.507C389.482 132.287 390.529 131.92 391.355 131.388C392.2 130.874 392.879 130.103 393.43 129.112C393.962 128.122 394.238 126.966 394.238 125.663C394.238 124.14 393.852 122.819 393.063 121.682C392.273 120.562 391.19 119.773 389.813 119.315C388.436 118.856 386.435 118.636 383.827 118.636H374.372V132.709H374.354Z" fill="white"/>
<path d="M425.981 133.883C424.126 135.461 422.327 136.58 420.601 137.223C418.875 137.865 417.039 138.195 415.057 138.195C411.807 138.195 409.292 137.406 407.547 135.81C405.803 134.214 404.922 132.195 404.922 129.718C404.922 128.269 405.252 126.948 405.913 125.737C406.574 124.544 407.437 123.572 408.502 122.856C409.567 122.122 410.779 121.59 412.119 121.205C413.11 120.948 414.598 120.691 416.58 120.453C420.638 119.976 423.631 119.389 425.54 118.728C425.559 118.049 425.577 117.609 425.577 117.425C425.577 115.371 425.1 113.939 424.163 113.095C422.878 111.958 420.969 111.389 418.435 111.389C416.066 111.389 414.322 111.811 413.202 112.637C412.082 113.462 411.238 114.93 410.705 117.022L405.803 116.343C406.244 114.251 406.978 112.545 408.006 111.261C409.035 109.976 410.503 108.967 412.449 108.27C414.377 107.573 416.617 107.224 419.169 107.224C421.703 107.224 423.759 107.518 425.338 108.123C426.917 108.71 428.074 109.463 428.827 110.362C429.561 111.261 430.093 112.398 430.387 113.774C430.552 114.637 430.644 116.178 430.644 118.398V125.095C430.644 129.755 430.754 132.709 430.956 133.957C431.177 135.186 431.599 136.379 432.223 137.516H426.972C426.458 136.507 426.128 135.278 425.981 133.883ZM425.559 122.673C423.741 123.425 421.005 124.049 417.352 124.563C415.295 124.856 413.826 125.187 412.964 125.572C412.101 125.939 411.44 126.489 410.981 127.205C410.522 127.92 410.283 128.709 410.283 129.59C410.283 130.929 410.797 132.049 411.807 132.929C412.817 133.828 414.304 134.269 416.25 134.269C418.178 134.269 419.904 133.847 421.409 133.003C422.915 132.159 424.016 131.003 424.732 129.535C425.265 128.397 425.54 126.728 425.54 124.508V122.673H425.559Z" fill="white"/>
<path d="M457.652 137.534V133.791C455.779 136.727 453.007 138.195 449.372 138.195C447.003 138.195 444.837 137.534 442.854 136.25C440.871 134.947 439.329 133.131 438.245 130.801C437.162 128.471 436.611 125.792 436.611 122.764C436.611 119.81 437.107 117.132 438.099 114.71C439.09 112.306 440.559 110.453 442.542 109.169C444.506 107.884 446.709 107.242 449.151 107.242C450.932 107.242 452.529 107.627 453.925 108.38C455.32 109.132 456.458 110.123 457.321 111.315V96.6372H462.315V137.516H457.652V137.534ZM441.771 122.764C441.771 126.562 442.578 129.388 444.176 131.278C445.773 133.149 447.664 134.103 449.849 134.103C452.052 134.103 453.906 133.204 455.449 131.406C456.991 129.608 457.744 126.874 457.744 123.186C457.744 119.132 456.954 116.159 455.394 114.269C453.833 112.38 451.905 111.425 449.61 111.425C447.37 111.425 445.516 112.343 444.01 114.159C442.523 115.957 441.771 118.838 441.771 122.764Z" fill="white"/>
<path d="M486.809 137.534V96.6553H504.948C508.602 96.6553 511.374 97.0222 513.265 97.7561C515.156 98.49 516.68 99.7927 517.819 101.646C518.957 103.499 519.526 105.554 519.526 107.811C519.526 110.71 518.59 113.15 516.699 115.15C514.826 117.131 511.925 118.397 507.996 118.948C509.428 119.645 510.511 120.324 511.264 120.984C512.843 122.434 514.349 124.25 515.762 126.415L522.886 137.534H516.074L510.658 129.021C509.079 126.562 507.776 124.691 506.748 123.388C505.719 122.085 504.801 121.168 503.994 120.654C503.186 120.14 502.36 119.773 501.515 119.572C500.909 119.443 499.899 119.37 498.504 119.37H492.225V137.534H486.809ZM492.225 114.691H503.865C506.344 114.691 508.271 114.434 509.667 113.92C511.062 113.407 512.127 112.599 512.843 111.462C513.577 110.343 513.926 109.113 513.926 107.792C513.926 105.866 513.229 104.27 511.815 103.022C510.401 101.774 508.198 101.15 505.15 101.15H492.206V114.691H492.225Z" fill="white"/>
<path d="M547.654 128.012L552.85 128.654C552.024 131.681 550.518 134.03 548.296 135.718C546.075 137.387 543.247 138.231 539.814 138.231C535.481 138.231 532.048 136.892 529.496 134.232C526.944 131.571 525.695 127.828 525.695 123.003C525.695 118.012 526.981 114.159 529.551 111.407C532.121 108.655 535.444 107.279 539.539 107.279C543.505 107.279 546.736 108.618 549.251 111.315C551.767 114.012 553.015 117.81 553.015 122.691C553.015 122.984 552.997 123.443 552.978 124.03H530.873C531.056 127.278 531.974 129.773 533.627 131.498C535.279 133.223 537.354 134.085 539.814 134.085C541.65 134.085 543.229 133.608 544.533 132.635C545.855 131.663 546.883 130.122 547.654 128.012ZM531.167 119.884H547.709C547.489 117.388 546.846 115.517 545.818 114.288C544.221 112.361 542.146 111.389 539.594 111.389C537.28 111.389 535.353 112.159 533.774 113.701C532.195 115.242 531.332 117.297 531.167 119.884Z" fill="white"/>
<path d="M578.041 148.892V134.397C577.251 135.498 576.168 136.397 574.754 137.131C573.34 137.846 571.853 138.213 570.274 138.213C566.749 138.213 563.738 136.801 561.186 133.993C558.652 131.186 557.367 127.333 557.367 122.453C557.367 119.48 557.881 116.802 558.909 114.453C559.938 112.086 561.443 110.307 563.408 109.077C565.372 107.866 567.52 107.242 569.87 107.242C573.542 107.242 576.425 108.784 578.518 111.866V107.903H583.034V148.873H578.041V148.892ZM562.563 122.655C562.563 126.471 563.371 129.333 564.968 131.223C566.566 133.131 568.493 134.085 570.715 134.085C572.863 134.085 574.699 133.186 576.241 131.37C577.784 129.553 578.555 126.801 578.555 123.095C578.555 119.15 577.747 116.196 576.113 114.196C574.479 112.215 572.569 111.206 570.384 111.206C568.2 111.206 566.364 112.123 564.84 113.976C563.316 115.848 562.563 118.728 562.563 122.655Z" fill="white"/>
<path d="M610.351 137.534V133.186C608.038 136.525 604.917 138.213 600.951 138.213C599.207 138.213 597.573 137.883 596.049 137.204C594.525 136.544 593.405 135.7 592.671 134.672C591.936 133.663 591.422 132.415 591.128 130.948C590.927 129.957 590.816 128.397 590.816 126.269V107.921H595.847V124.342C595.847 126.966 595.957 128.727 596.159 129.645C596.471 130.966 597.151 131.993 598.16 132.764C599.189 133.516 600.455 133.902 601.961 133.902C603.466 133.902 604.88 133.516 606.202 132.746C607.524 131.975 608.46 130.929 609.011 129.59C609.562 128.269 609.837 126.324 609.837 123.81V107.939H614.868V137.553H610.351V137.534Z" fill="white"/>
<path d="M643.015 128.012L648.211 128.654C647.385 131.681 645.879 134.03 643.658 135.718C641.436 137.387 638.609 138.231 635.175 138.231C630.843 138.231 627.409 136.892 624.857 134.232C622.305 131.571 621.057 127.828 621.057 123.003C621.057 118.012 622.342 114.159 624.912 111.407C627.483 108.655 630.806 107.279 634.9 107.279C638.866 107.279 642.097 108.618 644.613 111.315C647.128 114.012 648.376 117.81 648.376 122.691C648.376 122.984 648.358 123.443 648.34 124.03H626.234C626.418 127.278 627.336 129.773 628.988 131.498C630.641 133.223 632.715 134.085 635.175 134.085C637.011 134.085 638.59 133.608 639.894 132.635C641.216 131.663 642.244 130.122 643.015 128.012ZM626.528 119.884H643.07C642.85 117.388 642.207 115.517 641.179 114.288C639.582 112.361 637.507 111.389 634.955 111.389C632.642 111.389 630.714 112.159 629.135 113.701C627.556 115.242 626.693 117.297 626.528 119.884Z" fill="white"/>
<path d="M652.508 128.709L657.483 127.92C657.759 129.92 658.548 131.443 659.815 132.489C661.082 133.553 662.863 134.085 665.158 134.085C667.471 134.085 669.179 133.608 670.299 132.672C671.419 131.736 671.969 130.636 671.969 129.37C671.969 128.232 671.474 127.351 670.482 126.691C669.785 126.251 668.077 125.682 665.341 124.985C661.651 124.049 659.099 123.241 657.685 122.563C656.253 121.884 655.188 120.948 654.454 119.737C653.72 118.544 653.352 117.205 653.352 115.756C653.352 114.435 653.646 113.224 654.252 112.086C654.858 110.967 655.684 110.031 656.731 109.279C657.52 108.71 658.585 108.215 659.925 107.811C661.266 107.407 662.716 107.206 664.258 107.206C666.59 107.206 668.628 107.536 670.39 108.215C672.153 108.894 673.438 109.793 674.283 110.93C675.127 112.068 675.697 113.609 676.009 115.517L671.088 116.178C670.868 114.655 670.225 113.462 669.142 112.6C668.077 111.737 666.553 111.315 664.607 111.315C662.294 111.315 660.66 111.701 659.668 112.453C658.677 113.224 658.181 114.104 658.181 115.132C658.181 115.774 658.383 116.361 658.787 116.893C659.191 117.425 659.833 117.884 660.715 118.233C661.21 118.416 662.698 118.838 665.158 119.517C668.72 120.471 671.198 121.242 672.594 121.847C674.007 122.453 675.109 123.333 675.898 124.489C676.706 125.645 677.092 127.076 677.092 128.782C677.092 130.452 676.596 132.03 675.623 133.516C674.65 135.002 673.236 136.14 671.4 136.947C669.564 137.755 667.471 138.158 665.158 138.158C661.302 138.158 658.365 137.351 656.345 135.755C654.344 134.213 653.059 131.847 652.508 128.709Z" fill="white"/>
<path d="M694.057 133.058L694.791 137.498C693.377 137.791 692.111 137.938 690.991 137.938C689.173 137.938 687.759 137.645 686.749 137.076C685.74 136.507 685.042 135.737 684.638 134.801C684.234 133.865 684.032 131.884 684.032 128.874V111.829H680.342V107.921H684.032V100.582L689.026 97.5732V107.921H694.075V111.829H689.026V129.15C689.026 130.581 689.118 131.498 689.283 131.902C689.467 132.305 689.742 132.636 690.146 132.874C690.55 133.113 691.119 133.241 691.854 133.241C692.404 133.241 693.139 133.186 694.057 133.058Z" fill="white"/>
</svg>
