<svg width="74" height="78" viewBox="0 0 74 78" fill="none" xmlns="http://www.w3.org/2000/svg">
<g filter="url(#filter0_d_986_3647)">
<path d="M32.9836 10.0835C35.469 8.63883 38.531 8.63883 41.0163 10.0835L52.9836 17.0398C55.469 18.4845 57 21.1543 57 24.0437V37.9563C57 40.8457 55.469 43.5155 52.9836 44.9602L41.0163 51.9165C38.531 53.3612 35.469 53.3612 32.9836 51.9165L21.0163 44.9602C18.531 43.5155 17 40.8457 17 37.9563V24.0437C17 21.1543 18.531 18.4845 21.0163 17.0398L32.9836 10.0835Z" fill="#0B0E13"/>
<path d="M33.2349 10.5158C35.5649 9.16141 38.4351 9.16141 40.7651 10.5158L52.7324 17.4721C55.0628 18.8267 56.5 21.3313 56.5 24.0437V37.9563C56.5 40.6687 55.0627 43.1733 52.7324 44.5279L40.7651 51.4842C38.4351 52.8386 35.5649 52.8386 33.2349 51.4842L21.2676 44.5279C18.9372 43.1733 17.5 40.6687 17.5 37.9563V24.0437C17.5 21.3313 18.9372 18.8267 21.2676 17.4721L33.2349 10.5158Z" stroke="url(#paint0_linear_986_3647)"/>
</g>
<defs>
<filter id="filter0_d_986_3647" x="0" y="0" width="74" height="78" filterUnits="userSpaceOnUse" color-interpolation-filters="sRGB">
<feFlood flood-opacity="0" result="BackgroundImageFix"/>
<feColorMatrix in="SourceAlpha" type="matrix" values="0 0 0 0 0 0 0 0 0 0 0 0 0 0 0 0 0 0 127 0" result="hardAlpha"/>
<feOffset dy="8"/>
<feGaussianBlur stdDeviation="8.5"/>
<feComposite in2="hardAlpha" operator="out"/>
<feColorMatrix type="matrix" values="0 0 0 0 0 0 0 0 0 0 0 0 0 0 0 0 0 0 1 0"/>
<feBlend mode="normal" in2="BackgroundImageFix" result="effect1_dropShadow_986_3647"/>
<feBlend mode="normal" in="SourceGraphic" in2="effect1_dropShadow_986_3647" result="shape"/>
</filter>
<linearGradient id="paint0_linear_986_3647" x1="37" y1="9" x2="37" y2="53" gradientUnits="userSpaceOnUse">
<stop stop-color="#E20000" stop-opacity="0"/>
<stop offset="1" stop-color="#E20000" stop-opacity="0.6"/>
</linearGradient>
</defs>
</svg>
