<svg width="942" height="118" viewBox="0 0 942 118" fill="none" xmlns="http://www.w3.org/2000/svg">
<path opacity="0.3" d="M286 21H59C38.0132 21 21 38.0132 21 59V59C21 79.9868 38.0132 97 59 97H286M656 21H883C903.987 21 921 38.0132 921 59V59C921 79.9868 903.987 97 883 97H656" stroke="white"/>
<path opacity="0.3" d="M286 17H59C35.804 17 17 35.804 17 59V59C17 82.196 35.804 101 59 101H286M656 17H883C906.196 17 925 35.804 925 59V59C925 82.196 906.196 101 883 101H656" stroke="white"/>
<path opacity="0.3" d="M286 13H59C33.5949 13 13 33.5949 13 59V59C13 84.4051 33.5949 105 59 105H286M656 13H883C908.405 13 929 33.5949 929 59V59C929 84.4051 908.405 105 883 105H656" stroke="white"/>
<path opacity="0.3" d="M286 9H59C31.3858 9 9 31.3858 9 59V59C9 86.6142 31.3858 109 59 109H286M656 9H883C910.614 9 933 31.3858 933 59V59C933 86.6142 910.614 109 883 109H656" stroke="white"/>
<path opacity="0.3" d="M286 5H59C29.1766 5 5 29.1766 5 59V59C5 88.8234 29.1766 113 59 113H286M656 5H883C912.823 5 937 29.1766 937 59V59C937 88.8234 912.823 113 883 113H656" stroke="white"/>
<path opacity="0.3" d="M286 1H59C26.9675 1 1 26.9675 1 59V59C1 91.0325 26.9675 117 59 117H286M656 1H883C915.033 1 941 26.9675 941 59V59C941 91.0325 915.033 117 883 117H656" stroke="white"/>
</svg>
