<svg width="18" height="18" viewBox="0 0 18 18" fill="none" xmlns="http://www.w3.org/2000/svg">
<g opacity="0.8">
<path d="M2.49756 1.01123L2.49756 5.21666L5.42484 9.24936C6.1401 8.65118 7.00828 8.23018 7.96137 8.0544L2.49756 1.01123Z" fill="#E20000"/>
<path d="M12.4859 3.16273L14.9395 0L3.04736 0L5.50088 3.16273L12.4859 3.16273Z" fill="#E20000"/>
<path d="M15.5018 0.995361L10.0186 8.06363C10.9543 8.24472 11.8065 8.66238 12.5104 9.25191L15.5018 5.22121V0.995361Z" fill="#E20000"/>
<path d="M8.96616 15.7657C10.2204 15.7657 11.2409 14.7453 11.2409 13.491C11.2409 12.2368 10.2204 11.2163 8.96616 11.2163C7.71185 11.2163 6.69141 12.2368 6.69141 13.491C6.69141 14.7453 7.71185 15.7657 8.96616 15.7657ZM7.91189 12.4368H8.96619V13.4911H10.0205V14.5454H8.96619V13.4911H7.91189V12.4368Z" fill="#E20000"/>
<path d="M13.475 13.4909C13.475 11.0047 11.4523 8.98193 8.96607 8.98193C6.47978 8.98193 4.45703 11.0046 4.45703 13.4909C4.45703 15.9772 6.47975 17.9999 8.96607 17.9999C11.4523 17.9999 13.475 15.9772 13.475 13.4909ZM8.96603 10.162C10.8016 10.162 12.295 11.6553 12.295 13.491C12.295 15.3266 10.8016 16.82 8.96603 16.82C7.13038 16.82 5.63698 15.3266 5.63698 13.491C5.63698 11.6553 7.13042 10.162 8.96603 10.162Z" fill="#E20000"/>
</g>
</svg>
