<svg width="127" height="198" viewBox="0 0 127 198" fill="none" xmlns="http://www.w3.org/2000/svg">
<line x1="113.314" y1="12" x2="13.3139" y2="185.205" stroke="url(#paint0_radial_368_567)" stroke-width="4"/>
<g filter="url(#filter0_f_368_567)">
<line x1="113.314" y1="12" x2="13.3139" y2="185.205" stroke="url(#paint1_radial_368_567)" stroke-width="4"/>
</g>
<path d="M49.198 93H39.504C38.468 93 37.8513 92.482 37.654 91.446L26.184 47.12C25.8387 45.9853 26.332 45.418 27.664 45.418H34.62C35.6067 45.418 36.1987 45.936 36.396 46.972L44.166 83.38H44.462L52.232 46.972C52.4293 45.936 53.0213 45.418 54.008 45.418H60.964C62.1973 45.418 62.6907 45.9853 62.444 47.12L50.974 91.446C50.7273 92.482 50.1353 93 49.198 93Z" fill="white"/>
<path d="M73.626 136.864V135.384C73.626 134.348 74.144 133.83 75.18 133.83H81.47C82.506 133.83 83.024 134.348 83.024 135.384V135.976C83.024 137.851 83.394 139.133 84.134 139.824C84.874 140.515 86.2307 140.86 88.204 140.86H91.682C93.606 140.86 94.938 140.49 95.678 139.75C96.4673 139.01 96.862 137.629 96.862 135.606V134.718C96.862 133.287 96.27 132.202 95.086 131.462C93.9513 130.673 92.5207 130.204 90.794 130.056C89.0673 129.908 87.1927 129.637 85.17 129.242C83.1967 128.798 81.3467 128.255 79.62 127.614C77.8933 126.923 76.438 125.616 75.254 123.692C74.1193 121.719 73.552 119.203 73.552 116.144V113.554C73.552 109.706 74.6373 106.721 76.808 104.6C78.9787 102.479 81.988 101.418 85.836 101.418H93.236C97.1333 101.418 100.167 102.479 102.338 104.6C104.509 106.721 105.594 109.706 105.594 113.554V114.96C105.594 115.996 105.076 116.514 104.04 116.514H97.75C96.714 116.514 96.196 115.996 96.196 114.96V114.516C96.196 112.592 95.826 111.285 95.086 110.594C94.346 109.903 92.9893 109.558 91.016 109.558H88.13C86.1073 109.558 84.726 109.953 83.986 110.742C83.2953 111.482 82.95 112.962 82.95 115.182V116.588C82.95 118.907 84.9727 120.239 89.018 120.584C93.2113 120.929 96.936 121.768 100.192 123.1C101.919 123.84 103.349 125.172 104.484 127.096C105.668 128.971 106.26 131.388 106.26 134.348V136.864C106.26 140.712 105.175 143.697 103.004 145.818C100.833 147.939 97.824 149 93.976 149H85.91C82.062 149 79.0527 147.939 76.882 145.818C74.7113 143.697 73.626 140.712 73.626 136.864Z" fill="white"/>
<defs>
<filter id="filter0_f_368_567" x="0.581848" y="0" width="125.464" height="197.205" filterUnits="userSpaceOnUse" color-interpolation-filters="sRGB">
<feFlood flood-opacity="0" result="BackgroundImageFix"/>
<feBlend mode="normal" in="SourceGraphic" in2="BackgroundImageFix" result="shape"/>
<feGaussianBlur stdDeviation="5.5" result="effect1_foregroundBlur_368_567"/>
</filter>
<radialGradient id="paint0_radial_368_567" cx="0" cy="0" r="1" gradientUnits="userSpaceOnUse" gradientTransform="translate(61.1485 97.3523) rotate(-59.6434) scale(83.6392 16244.8)">
<stop stop-color="#FFBE18"/>
<stop offset="1" stop-color="#FFBE18" stop-opacity="0"/>
</radialGradient>
<radialGradient id="paint1_radial_368_567" cx="0" cy="0" r="1" gradientUnits="userSpaceOnUse" gradientTransform="translate(61.1485 97.3523) rotate(-59.6434) scale(83.6392 16244.8)">
<stop stop-color="#FFBE18"/>
<stop offset="1" stop-color="#FFBE18" stop-opacity="0"/>
</radialGradient>
</defs>
</svg>
