<svg width="20" height="20" viewBox="0 0 20 20" fill="none" xmlns="http://www.w3.org/2000/svg">
<g clip-path="url(#clip0_970_553)">
<path d="M17.9257 2.89245L10.2173 0.0391162C10.0773 -0.0125505 9.92234 -0.0125505 9.78317 0.0391162L2.07484 2.89245C1.829 2.98328 1.6665 3.21662 1.6665 3.47828V10.1458C1.6665 17.7308 9.75817 19.9575 9.84067 19.9791C9.89234 19.9933 9.9465 20 9.99984 20C10.0532 20 10.1073 19.9933 10.159 19.9791C10.2415 19.9575 18.3332 17.7299 18.3332 10.1458V3.47828C18.3332 3.21662 18.1707 2.98328 17.9257 2.89245ZM14.8223 8.57078L12.8548 10.5866L13.3215 13.4408C13.3598 13.6766 13.2607 13.9141 13.064 14.0525C12.9565 14.1283 12.8298 14.1666 12.704 14.1666C12.5998 14.1666 12.4965 14.1408 12.4023 14.0883L9.99984 12.7608L7.59734 14.0883C7.38817 14.2033 7.1315 14.1908 6.93567 14.0525C6.73984 13.9141 6.64067 13.6766 6.67817 13.4408L7.14484 10.5866L5.17734 8.57078C5.014 8.40328 4.95734 8.15745 5.03234 7.93578C5.1065 7.71328 5.29817 7.55245 5.53067 7.51662L8.224 7.10495L9.434 4.52662C9.639 4.08828 10.3598 4.08828 10.5648 4.52662L11.7748 7.10495L14.4682 7.51662C14.6998 7.55162 14.8923 7.71328 14.9665 7.93578C15.0423 8.15745 14.9857 8.40245 14.8223 8.57078Z" fill="#45F882"/>
</g>
<defs>
<clipPath id="clip0_970_553">
<rect width="20" height="20" fill="white"/>
</clipPath>
</defs>
</svg>
