<svg width="20" height="20" viewBox="0 0 20 20" fill="none" xmlns="http://www.w3.org/2000/svg">
<g clip-path="url(#clip0_970_525)">
<path d="M18.217 19.9999C19.1704 19.9283 19.9282 19.1705 19.9998 18.2171L15.9903 14.2076L14.2075 15.9905L18.217 19.9999Z" fill="#E20000"/>
<path d="M13.4153 11.0877L10.8984 13.2526L12.3674 14.5162L11.0781 15.8055L11.9067 16.6341L16.6341 11.9067L15.8055 11.0781L14.5161 12.3675L13.4153 11.0877Z" fill="#E20000"/>
<path d="M9.22711 6.21863L4.25941 0.443398L0 0L0.443398 4.25941L6.46043 9.43508L9.22711 6.21863Z" fill="#E20000"/>
<path d="M0 18.2171C0.0716406 19.1705 0.829453 19.9283 1.78281 19.9999L5.7923 15.9905L4.00949 14.2076L0 18.2171Z" fill="#E20000"/>
<path d="M5.48365 12.3675L4.19432 11.0782L3.36572 11.9068L8.09311 16.6341L8.9217 15.8055L7.63236 14.5162L19.5565 4.25941L19.9999 0L15.7404 0.443398L5.48365 12.3675Z" fill="#E20000"/>
</g>
<defs>
<clipPath id="clip0_970_525">
<rect width="20" height="20" fill="white"/>
</clipPath>
</defs>
</svg>
