<svg width="20" height="20" viewBox="0 0 20 20" fill="none" xmlns="http://www.w3.org/2000/svg">
<g clip-path="url(#clip0_970_555)">
<path d="M15.4931 7.59078C15.4392 7.5232 15.3738 7.53648 15.3395 7.55027C15.3108 7.56191 15.245 7.5991 15.2541 7.6923C15.2651 7.80421 15.2712 7.91832 15.2724 8.03148C15.2773 8.50093 15.0889 8.96085 14.7557 9.29332C14.4246 9.62363 13.9892 9.8016 13.5255 9.79644C12.8921 9.78835 12.3668 9.458 12.0063 8.84109C11.7082 8.33097 11.8393 7.67304 11.978 6.97644C12.0591 6.56871 12.1431 6.14707 12.1431 5.74578C12.1431 2.62121 10.0425 0.81855 8.79043 0.0221045C8.76453 0.00565918 8.73988 -0.00012207 8.71805 -0.00012207C8.68254 -0.00012207 8.65441 0.0151904 8.64055 0.0245654C8.61367 0.0427686 8.57066 0.0842529 8.58449 0.15769C9.06309 2.69917 7.63559 4.22773 6.12426 5.84601C4.56645 7.5141 2.80078 9.40476 2.80078 12.8146C2.80078 16.7766 6.0241 20 9.98613 20C13.2483 20 16.1245 17.7256 16.9805 14.4691C17.5641 12.2487 16.9525 9.42023 15.4931 7.59078ZM10.1654 18.4662C9.17328 18.5115 8.22977 18.1557 7.5091 17.4666C6.79617 16.7849 6.38727 15.8335 6.38727 14.8564C6.38727 13.0228 7.08836 11.6767 8.97406 9.88964C9.00492 9.86039 9.03652 9.85113 9.06406 9.85113C9.08902 9.85113 9.11066 9.85874 9.12555 9.86589C9.15691 9.88101 9.20848 9.91843 9.20152 9.99937C9.1341 10.7839 9.13527 11.4352 9.20496 11.935C9.38309 13.2118 10.3177 14.0696 11.5308 14.0696C12.1256 14.0696 12.6921 13.8458 13.1261 13.4393C13.1764 13.3921 13.2327 13.3982 13.2542 13.4027C13.2828 13.4089 13.321 13.4264 13.3411 13.4747C13.521 13.9091 13.6129 14.3703 13.6143 14.8452C13.6201 16.7564 12.0729 18.3808 10.1654 18.4662Z" fill="#FFBE18"/>
</g>
<defs>
<clipPath id="clip0_970_555">
<rect width="20" height="20" fill="white"/>
</clipPath>
</defs>
</svg>
