<svg width="1464" height="564" viewBox="0 0 1464 564" fill="none" xmlns="http://www.w3.org/2000/svg">
<mask id="mask0_202_542" style="mask-type:alpha" maskUnits="userSpaceOnUse" x="0" y="0" width="1464" height="564">
<path d="M1464 534V30C1464 13.4315 1450.57 0 1434 0H1098H927.426C919.47 0 911.839 3.16071 906.213 8.7868L883.787 31.2132C878.161 36.8393 870.53 40 862.574 40H601.426C593.47 40 585.839 36.8393 580.213 31.2132L557.787 8.78679C552.161 3.1607 544.53 0 536.574 0H366H30C13.4315 0 0 13.4315 0 30V534C0 550.569 13.4315 564 30 564H366H536.574C544.53 564 552.161 560.839 557.787 555.213L580.213 532.787C585.839 527.161 593.47 524 601.426 524H862.574C870.53 524 878.161 527.161 883.787 532.787L906.213 555.213C911.839 560.839 919.47 564 927.426 564H1098H1434C1450.57 564 1464 550.569 1464 534Z" fill="#1A1D26"/>
</mask>
<g mask="url(#mask0_202_542)">
<path d="M1463.5 30V534C1463.5 550.292 1450.29 563.5 1434 563.5H1098H927.426C919.603 563.5 912.099 560.392 906.567 554.86L884.14 532.433C878.42 526.713 870.663 523.5 862.574 523.5H601.426C593.337 523.5 585.58 526.713 579.86 532.433L557.433 554.86C551.901 560.392 544.397 563.5 536.574 563.5H366H30C13.7076 563.5 0.5 550.292 0.5 534V30C0.5 13.7076 13.7076 0.5 30 0.5H366H536.574C544.397 0.5 551.901 3.60802 557.433 9.14034L579.86 31.5668C585.58 37.2866 593.337 40.5 601.426 40.5H862.574C870.663 40.5 878.42 37.2866 884.14 31.5668L906.567 9.14035C912.099 3.60803 919.603 0.5 927.426 0.5H1098H1434C1450.29 0.5 1463.5 13.7076 1463.5 30Z" fill="#1A1D26" stroke="url(#paint0_linear_202_542)"/>
</g>
<defs>
<linearGradient id="paint0_linear_202_542" x1="0" y1="0" x2="1505.47" y2="412.762" gradientUnits="userSpaceOnUse">
<stop stop-color="#45F882"/>
<stop offset="1" stop-color="#FFBE18"/>
</linearGradient>
</defs>
</svg>
